<svg xmlns="http://www.w3.org/2000/svg" viewBox="0 0 167.97 167.97"><defs><style>.cls-1{fill:#7fc14c;}.cls-2{fill:#fff;}</style></defs><title>Asset 2</title><g id="Layer_2" data-name="Layer 2"><g id="_ÎÓÈ_1" data-name="—ÎÓÈ_1"><circle class="cls-1" cx="83.99" cy="83.99" r="83.99"/><polygon class="cls-2" points="127.6 92.87 127.6 92.87 127.6 92.87 127.6 92.87"/><polygon class="cls-2" points="128.2 69.43 128.2 69.43 128.21 69.43 128.2 69.43"/><polygon class="cls-2" points="101.67 72.31 101.67 72.31 101.67 72.31 101.67 72.31"/><path class="cls-2" d="M38.34,35.89a19.13,19.13,0,0,1,2.81,2.71,35.44,35.44,0,0,1,2.17,2.85l.08-.13a2.53,2.53,0,0,1,.18-.26c.07-.08.13-.18.2-.25a5,5,0,0,1,.45-.46,5.59,5.59,0,0,1,.49-.39,5.81,5.81,0,0,1,.5-.33c.16-.1.33-.18.48-.27l.45-.2c.28-.12.51-.2.68-.25l.27-.08a.14.14,0,0,1,.17.1.14.14,0,0,1,0,.14h0l-.2.18-.53.47-.71.66-.37.38c-.12.13-.24.26-.35.4s-.22.27-.31.41a4.55,4.55,0,0,0-.25.41l-.1.2-.08.19c0,.12-.08.25-.11.35v.08c.67,1,1.33,2.12,2,3.25.85,1.42,1.71,2.91,2.61,4.44l0,0A4.62,4.62,0,0,1,49.2,50a5.35,5.35,0,0,1,.39-.41,5.07,5.07,0,0,1,.41-.36,4.76,4.76,0,0,1,.41-.29c.13-.09.27-.16.39-.22s.24-.12.34-.16l.28-.1.25-.07a.14.14,0,0,1,.14.23h0l-.16.18-.41.47a12.64,12.64,0,0,0-1.05,1.44c-.08.14-.16.26-.22.4a3.4,3.4,0,0,0-.17.38l-.07.18,0,.17a.32.32,0,0,0,0,.07c.61,1,1.24,2,1.9,3,1,1.53,2.05,3.06,3.22,4.55q1.05,1.35,2.22,2.65s0,0,0,0c0-.21.09-.42.13-.63s.12-.41.19-.62.17-.39.25-.57a4.74,4.74,0,0,1,.3-.51c.05-.08.1-.16.15-.22l.17-.19a3.51,3.51,0,0,1,.29-.32l.26-.22.23-.18a.14.14,0,0,1,.19,0,.14.14,0,0,1,0,.14v0l-.11.25-.13.28c0,.11-.09.23-.15.37a3.78,3.78,0,0,0-.15.43c0,.16-.11.31-.14.48s-.08.34-.12.52l-.09.55-.06.55c0,.18,0,.36,0,.53s0,.37,0,.53v.07l.41.42a32.76,32.76,0,0,0,4.52,3.74,29,29,0,0,0,5.25,2.82,29.53,29.53,0,0,0,7,1.9l-.15-.5c-.08-.24-.13-.5-.19-.76s-.09-.54-.14-.81-.05-.58,0-.84,0-.25,0-.38v-.21l0-.2a5.22,5.22,0,0,1,.12-.74,4.39,4.39,0,0,1,.19-.64c.07-.2.15-.37.21-.53s.14-.26.2-.36l.19-.31a.14.14,0,0,1,.25.1l-.08.35-.09.4c0,.15,0,.32-.07.5a5.36,5.36,0,0,0,0,.59,4.38,4.38,0,0,0,0,.66v.17h0v0h0v.16l0,.38c0,.25.09.46.13.7s.12.47.18.71.13.46.21.68.14.43.23.64l.15.4q1.77.19,3.56.2h2.38l.78,0c1,0,2.09-.1,3.13-.18,1.62-.13,3.24-.33,4.83-.59v0l-.18-.36a6.46,6.46,0,0,1-.32-.77,4.09,4.09,0,0,1-.13-.41c0-.14-.08-.27-.1-.41s-.1-.55-.14-.83-.05-.54-.05-.8,0-.51,0-.74,0-.46.05-.66l0-.15c0-.08,0-.1,0-.15l0-.25c0-.16.05-.3.08-.41s.08-.36.08-.36a.14.14,0,0,1,.17-.1.14.14,0,0,1,.11.11s0,.13.05.37,0,.26,0,.42l0,.26a1.17,1.17,0,0,0,0,.12s0,.1,0,.15l0,.31c0,.1,0,.21.05.32s.07.45.13.68.1.47.16.71.13.48.21.71.16.46.26.68.2.43.3.63l.16.28.17.26.12.17A38.86,38.86,0,0,0,104,67.66a33.24,33.24,0,0,0,3.86-2.48l-.38-.21c-.14-.08-.28-.16-.42-.26a9.6,9.6,0,0,1-.82-.62,9.8,9.8,0,0,1-.77-.73c-.23-.27-.46-.53-.66-.81a8,8,0,0,1-.55-.85c-.15-.29-.31-.56-.42-.84l-.16-.4c0-.13-.09-.26-.12-.39s-.08-.24-.11-.35l-.07-.33a3.63,3.63,0,0,1-.09-.53c0-.29,0-.46,0-.46a.14.14,0,0,1,.27-.07l.18.42a4.57,4.57,0,0,0,.21.47c.08.18.18.37.3.58s.12.21.18.32l.22.33c.13.23.32.46.49.69s.37.47.59.69.44.44.66.65.46.41.72.57a8.81,8.81,0,0,0,.73.49l.37.21a3.24,3.24,0,0,0,.36.18l.34.16.25.1a36.39,36.39,0,0,0,3.62-3.39,71.49,71.49,0,0,0,6.28-8l.68-1-.15-.14-.18-.18a2.53,2.53,0,0,0-.21-.18l-.23-.19a1.62,1.62,0,0,0-.24-.19c-.18-.11-.35-.24-.54-.35l-.59-.32-.62-.26-.6-.19-.67-.13-.08,0h-.19l-.27,0a3.92,3.92,0,0,0-.5,0h-.76a.14.14,0,0,1-.13-.15.15.15,0,0,1,.08-.12l.32-.14.37-.15a2.84,2.84,0,0,1,.53-.14l.32-.07.17,0h.19c.22,0,.44,0,.69,0l.83.07c.27.05.54.12.81.18s.52.19.78.29.49.25.72.37a5.54,5.54,0,0,1,.63.42,3.81,3.81,0,0,1,.5.41c.35-.49.69-1,1-1.45q1.07-1.46,2.15-2.76a3.45,3.45,0,0,0-.1-.46,4,4,0,0,0-.53-1.19,2.42,2.42,0,0,0-.2-.29l-.1-.14-.12-.13a5.14,5.14,0,0,0-.5-.51l-.28-.23-.29-.2c-.09-.07-.2-.12-.29-.18a2.23,2.23,0,0,0-.29-.15l-.28-.13-.28-.11c-.18-.07-.35-.1-.5-.15l-.4-.08a2.62,2.62,0,0,0-.27,0h-.1a.14.14,0,0,1-.12-.16.14.14,0,0,1,.11-.12l.1,0a2.4,2.4,0,0,1,.28,0l.45,0a5,5,0,0,1,.59,0,4.38,4.38,0,0,1,.69.13,2.88,2.88,0,0,1,.37.11c.12,0,.25.09.38.15l.38.19.37.23a4.64,4.64,0,0,1,.7.55l.16.16.15.17a3.43,3.43,0,0,1,.28.35c.08.12.18.24.25.37l.21.38c.06.14.12.28.18.42a23.86,23.86,0,0,1,4.86-4.21c.53-.33,1-.61,1.51-.85a13.68,13.68,0,0,0-5.52-2.41c-3.2-.69-5.73.76-8.19,2.4a28.74,28.74,0,0,0-2.88,2.41,7.52,7.52,0,0,0-2.75,5.46,1.56,1.56,0,0,1-1.35,1.62,11.26,11.26,0,0,0-7.7,7l0,.07c-.16.41-.2,1-.5,1.18s-.85,0-1.27.06a20.86,20.86,0,0,0-3.64.78,14.81,14.81,0,0,0-5,3,12.53,12.53,0,0,0-1.57,2c-.26.37-.44.6-.9.26-2.59-1.93-5.58-2.18-8.62-1.84a14,14,0,0,0-3.53,1.24c-.78.31-1.5.74-2.29,1.14-4.23-4.66-9.16-7.73-15.81-7.1A10.17,10.17,0,0,0,59.54,56c-.78-3.53-2.33-6.52-5.72-8.24-.15-.08-.22-.46-.2-.69.21-2.17.33-4.33-.74-6.35a6.72,6.72,0,0,0-2.51-2.52,2.58,2.58,0,0,1-1-1.29A10.9,10.9,0,0,0,47,33a6.6,6.6,0,0,0-3.67-1.9,8.43,8.43,0,0,0-6.16.84A9.72,9.72,0,0,0,34.68,34c.23.06.45.14.68.23A11.52,11.52,0,0,1,38.34,35.89Z"/><path class="cls-2" d="M132.8,88.59Z"/><path class="cls-2" d="M39.8,104.84Z"/><path class="cls-2" d="M145.64,97.83c.49-2.77-.19-5.28-3.48-6.66a19.46,19.46,0,0,0,.52-6.22A9.3,9.3,0,0,0,140,78.78a8.49,8.49,0,0,0-1.85-1.1,6.63,6.63,0,0,0,1.59-6c-.4-2.13-.94-4.26-2.8-5.79.16-.23.29-.45.45-.64a6,6,0,0,0,1.41-4,8.77,8.77,0,0,0-.87-4.42.8.8,0,0,1,0-.65c.46-.87,1-1.71,1.43-2.59,1.51-2.92,1.76-5.89-.07-8.73a6.82,6.82,0,0,0-5.58-3.35l-.64.28a18.19,18.19,0,0,0-2,1.16q-.53.36-1.09.8l.66,0h.27l.24,0,.54.05a6.59,6.59,0,0,1,1,.23c.17,0,.34.12.5.18s.32.14.47.23a4.73,4.73,0,0,1,.81.57c.12.1.22.22.32.32s.18.22.27.33a4.39,4.39,0,0,1,.57,1.14c.08.29.12.46.12.46a.14.14,0,0,1-.1.17.14.14,0,0,1-.15-.06h0l-.24-.37c-.09-.11-.17-.25-.3-.39a5,5,0,0,0-.43-.45l-.27-.22c-.1-.06-.2-.14-.31-.2a3.62,3.62,0,0,0-.71-.33,5.08,5.08,0,0,0-.82-.21,6.79,6.79,0,0,0-.88-.09h-.69l-.21,0-.88.08-.83.14c-.26,0-.51.11-.74.15l-.21,0c-.53.54-1.06,1.13-1.59,1.79-1.06,1.28-2.11,2.76-3.22,4.38a5,5,0,0,1,.75.33,6,6,0,0,1,.54.36,6.71,6.71,0,0,1,.51.45,7.11,7.11,0,0,1,1.22,1.75l.16.33c0,.11.09.23.14.34a7,7,0,0,1,.25.7c.08.23.13.48.19.71a11.57,11.57,0,0,1,.23,1.44c0,.24,0,.48,0,.72s0,.46,0,.71a9.63,9.63,0,0,1-.18,1.29,10.87,10.87,0,0,1-.3,1.13c-.06.17-.12.33-.18.48l-.18.42c-.11.27-.24.49-.33.67-.21.36-.34.56-.34.56a.14.14,0,0,1-.25-.12h0l.2-.6c0-.19.13-.42.19-.69l.1-.43.09-.48a10,10,0,0,0,.12-1.07,10.71,10.71,0,0,0,0-1.2c0-.19,0-.41-.05-.61l-.09-.63a10.08,10.08,0,0,0-.31-1.26c-.07-.21-.13-.41-.22-.61l-.12-.3-.13-.29-.13-.28-.15-.27a5.06,5.06,0,0,0-.31-.5,5.29,5.29,0,0,0-.7-.83c-.12-.12-.25-.21-.37-.31s-.25-.15-.37-.23a2.7,2.7,0,0,0-.65-.25,1,1,0,0,0-.28-.06l-.88,1.3A73.88,73.88,0,0,1,115,62.86a39.7,39.7,0,0,1-4.28,4.08c-.79.63-1.61,1.26-2.47,1.83-.43.3-.87.57-1.31.85s-.9.54-1.36.79a36.55,36.55,0,0,1-3.85,1.84s0,0,0,.06v.15c0,.06,0,.13,0,.19s0,.26,0,.4,0,.14,0,.21,0,.13,0,.19c0,.25,0,.52.08.79s.09.56.14.84l.19.84.23.8c.08.26.18.51.26.75a6.65,6.65,0,0,0,.26.67c.09.2.16.4.24.56s.15.31.21.43l.18.38h0a.14.14,0,0,1-.07.18.14.14,0,0,1-.15,0L103,79.4l-.35-.35a6.42,6.42,0,0,1-.42-.49,5.68,5.68,0,0,1-.46-.62c-.14-.23-.32-.47-.45-.74s-.28-.55-.41-.83l-.34-.9c-.09-.31-.17-.62-.25-.93s-.12-.64-.16-1c0-.08,0-.16,0-.23s0-.14,0-.21l0-.25a44.32,44.32,0,0,1-6.68,1.84c-.74.15-1.5.27-2.25.38l0,.58c0,.27,0,.51.07.79s.06.56.11.85l.07.44c0,.15.06.3.09.44s.11.6.19.89l.21.86c.15.56.29,1.09.42,1.54l.17.62c.05.19.1.35.13.48s.11.43.11.43h0a.14.14,0,0,1-.1.17.14.14,0,0,1-.14-.05l-.25-.36-.28-.42c-.11-.16-.22-.35-.34-.56s-.26-.43-.38-.68l-.38-.78c-.13-.27-.24-.57-.37-.86s-.22-.61-.32-.92c0-.16-.1-.31-.14-.47l-.12-.48a8,8,0,0,1-.19-.95c0-.31-.1-.63-.12-.91s0-.29,0-.42c-.89.11-1.79.21-2.68.28-1.1.09-2.19.15-3.3.18l-.83,0H80.27l-1.56-.06-.09.32-.2.76-.21.85-.19.91c-.05.31-.12.63-.17.94s-.1.63-.12.94c0,.16,0,.31,0,.47v0h0v0h0v.21c0,.08,0,.16,0,.24s0,.31,0,.46,0,.28,0,.41a6.32,6.32,0,0,0,0,.77c0,.24,0,.46.05.66l.08.51c0,.28.07.45.07.45h0a.14.14,0,0,1-.12.15.14.14,0,0,1-.14-.07l-.21-.42-.23-.49c-.07-.2-.15-.42-.23-.67a7.74,7.74,0,0,1-.21-.82c0-.15-.06-.3-.09-.46l-.05-.46,0-.23V81c0-.17,0-.34,0-.51,0-.34,0-.69,0-1s.05-.69.08-1,.09-.66.14-1c.11-.63.24-1.21.35-1.71l0-.06c-1.19-.11-2.37-.27-3.55-.5a31.78,31.78,0,0,1-4.72-1.27l-.18.27c-.1.17-.2.36-.32.56a2.93,2.93,0,0,0-.14.32l-.16.34-.26.75-.11.4a3.58,3.58,0,0,0-.1.4l-.09.4a1.62,1.62,0,0,0,0,.22l0,.23,0,.23,0,.11v.08h0v0c0,.14,0,.28,0,.42s0,.28-.05.41,0,.27,0,.4,0,.51-.06.74,0,.44,0,.64,0,.37,0,.51,0,.45,0,.45a.14.14,0,0,1-.27.05s-.08-.14-.2-.4-.14-.28-.22-.46-.15-.4-.23-.64-.15-.49-.23-.77-.07-.28-.1-.43-.06-.3-.08-.45l-.08-.47c0-.16,0-.32,0-.49l0-.23a2,2,0,0,1,0-.25c0-.18,0-.36,0-.53a9.58,9.58,0,0,1,.09-1c.06-.34.14-.68.22-1s.2-.63.33-.92.24-.52.36-.74a31.23,31.23,0,0,1-5.23-3l-.76-.57-.1.1L60,70c-.17.17-.33.36-.51.55s-.35.39-.52.6-.34.43-.52.64-.33.44-.48.67-.3.45-.44.67-.27.44-.38.65-.22.42-.31.61-.18.37-.25.53-.13.3-.18.42-.16.38-.16.38h0a.14.14,0,0,1-.27,0s0-.15,0-.42a3.36,3.36,0,0,1,0-.49,4.76,4.76,0,0,1,0-.63,6.62,6.62,0,0,1,.12-.75c.06-.26.13-.54.22-.82s.19-.57.32-.85.27-.56.41-.84.31-.54.48-.8.35-.5.52-.74.36-.45.54-.65.3-.34.45-.49q-1.37-1.14-2.59-2.38a43.72,43.72,0,0,1-3.16-3.59l-.38.37c-.2.18-.38.41-.59.62s-.42.44-.62.69l-.62.73-.58.76c-.2.25-.37.51-.54.76s-.36.48-.5.72l-.43.67-.19.3-.16.28-.26.45-.24.39h0a.14.14,0,0,1-.19,0,.14.14,0,0,1-.06-.14s0-.17.08-.46.06-.32.11-.53l.07-.33c0-.11.07-.23.11-.35l.25-.79c.1-.28.23-.56.36-.86a8.42,8.42,0,0,1,.43-.9c.16-.3.33-.6.51-.9l.58-.86c.19-.29.41-.54.61-.8s.4-.5.61-.72l.57-.58c-1.09-1.48-2.08-3-3-4.46-1.62-2.62-3-5.17-4.35-7.54l-.14.05-.31.11-.3.14-.66.31a3.29,3.29,0,0,0-.37.19l-.38.21c-.26.15-.54.28-.8.46l-.81.52-.78.57c-.27.18-.51.38-.75.58s-.49.37-.7.56l-.61.53-.28.23-.24.23-.4.36-.36.31h0a.14.14,0,0,1-.22-.16s.07-.16.2-.44.14-.31.24-.5l.15-.31.2-.32.46-.72c.16-.26.37-.5.57-.77a8.28,8.28,0,0,1,.67-.78c.24-.25.49-.51.75-.76l.82-.69a7.75,7.75,0,0,1,.84-.62l.42-.28.2-.13.22-.12.82-.42.37-.18.13-.05a53.91,53.91,0,0,0-4.45-6.92A17,17,0,0,0,37,37.58a9.42,9.42,0,0,0-2.39-1.45,7.87,7.87,0,0,0-1.12-.37c-.12.24-.23.49-.33.74a4.79,4.79,0,0,1-1.48,1.69c-2.16,1.77-2.5,4.05-2,6.6a10.66,10.66,0,0,0,.62,2.3,10.61,10.61,0,0,0,1.4,2.07.91.91,0,0,1,.2,1A12.35,12.35,0,0,0,31.45,56a6.38,6.38,0,0,0,1.07,2.56c.67,1.11,1.52,2.1,2.25,3.18a1.06,1.06,0,0,1,0,.79,15.45,15.45,0,0,0-1,5.67,18.32,18.32,0,0,0,1.55,6.42,1.3,1.3,0,0,1,0,.91c-.21.56-.56,1.07-.77,1.63a12.37,12.37,0,0,0,.25,9.16,1,1,0,0,1-.17,1.16,21.15,21.15,0,0,0-3.38,5.27A12.47,12.47,0,0,0,31,102a5.33,5.33,0,0,1,.09,3.84,8,8,0,0,0,.07,5.25A9.71,9.71,0,0,0,34,115.5a1.38,1.38,0,0,1,.5,1.2,12.89,12.89,0,0,0,1.19,6.62,7,7,0,0,0,1.71,2.37c1.42,1.14,3,2.06,4.51,3.09a1.56,1.56,0,0,1,.49.56c.71,1.39,1.35,2.83,2.13,4.18A4.55,4.55,0,0,0,46,134.89a15.62,15.62,0,0,0,5.63,2.36,7.51,7.51,0,0,0,4.41-.26c1.22-.51,2.44-1,3.62-1.59.49-.24.85-.71,1.33-1a1.73,1.73,0,0,1,1-.22,11.38,11.38,0,0,0,7.19-.91c2.71-1.41,4-2.3,6-5.72a12.52,12.52,0,0,0,1.83.94,14.07,14.07,0,0,0,2.71.61c.53.06.77.21.7.73-.26,1.8-.6,3.59-.77,5.4a38.18,38.18,0,0,0-.17,4.79A7.63,7.63,0,0,0,80.65,144a9.16,9.16,0,0,0,4.1,3.82,4.84,4.84,0,0,1,.5.28h4.63c4.12-1.21,5.75-4.48,6.8-8.24a15.46,15.46,0,0,0-1-10.81,18.08,18.08,0,0,1-.85-2.07c-.83-2.89-1.84-5.71-2.51-8.65a21.6,21.6,0,0,0-2.46-6.23,14.81,14.81,0,0,0-3.72-3.58,20.8,20.8,0,0,0-5.58-3,13.53,13.53,0,0,0-6.25-.83,11.25,11.25,0,0,0-2.87.92,16.25,16.25,0,0,0-2.88,1.34,15.77,15.77,0,0,0-1.91,1.8,1.49,1.49,0,0,1-.8.48A10.86,10.86,0,0,0,57,113.83c-.08.11-.19.2-.32.35-.45-.65-.84-1.29-1.3-1.87a10.42,10.42,0,0,0-1.43-1.6.9.9,0,0,1-.3-1.25,9.35,9.35,0,0,0-.51-9.44,1.23,1.23,0,0,1,0-1.42,22.51,22.51,0,0,0,1.58-3.4,6,6,0,0,0-.41-5.36,1.75,1.75,0,0,1,.17-2.46,6.69,6.69,0,0,0,1.78-4.82l1.3,1A8,8,0,0,0,65,84.84a2.14,2.14,0,0,1,2.6.56A6.87,6.87,0,0,0,71.85,88a17.61,17.61,0,0,0,6-.36,2.23,2.23,0,0,1,1.23.07,14.82,14.82,0,0,0,11.27.16A10.69,10.69,0,0,0,93.06,86a1.74,1.74,0,0,1,1.46-.5,9.91,9.91,0,0,0,8.88-3.53,1.11,1.11,0,0,1,1.12-.45,17,17,0,0,0,2.57.39A13.1,13.1,0,0,0,115,79.45l.55-.36a.35.35,0,0,1,.13,0c.42.73.84,1.43,1.21,2.15a.8.8,0,0,1,0,.64,5.9,5.9,0,0,0-.16,5,.73.73,0,0,1-.14.65,9.5,9.5,0,0,0-3,5.39,5.82,5.82,0,0,0,.46,4.43c.27.44,0,.6-.29.81a28.72,28.72,0,0,0-2.41,1.83,10.59,10.59,0,0,0-3.47,6.64,16.77,16.77,0,0,0,.44,7.44,38.27,38.27,0,0,0,2,4.56,5.69,5.69,0,0,1,.5,3,1.71,1.71,0,0,1-.43.88,16.54,16.54,0,0,0-3.27,6.27,17.7,17.7,0,0,1-3.2,6.1,5.45,5.45,0,0,0-1.55,3.49,1.17,1.17,0,0,0,.93,1.27c1.62.47,2.38.17,3.06-1.4s1.39-3.23,1.92-4.9c.59-1.83,2-3,3.25-4.25.53-.53,1.08-1.23,1.73-1.36s1.26.46,1.88.75a22.4,22.4,0,0,0,6.63,2.18,12.8,12.8,0,0,0,1.36.13c1.2,0,2.41.08,3.61,0a13.44,13.44,0,0,0,6.33-2,22.32,22.32,0,0,0,6.41-6.59,10.22,10.22,0,0,0,1.61-6.43,1.86,1.86,0,0,1,.43-1.38,22.1,22.1,0,0,0,1.75-2.56,9.73,9.73,0,0,0,.74-8.29,1.69,1.69,0,0,1,.11-1A32.13,32.13,0,0,0,145.64,97.83ZM56,80.66h0a8.12,8.12,0,0,1-.88,0,5.57,5.57,0,0,1-.89-.08,6.09,6.09,0,0,1-.88-.18l-.22-.05-.21-.08-.42-.16-.21-.08L52,80l-.41-.2a3.17,3.17,0,0,1-.39-.23l-.39-.24c-.26-.16-.49-.36-.73-.54s-.45-.4-.68-.61-.41-.44-.62-.67-.38-.48-.57-.72-.27-.39-.4-.59c0,.23,0,.46,0,.71s0,.77-.12,1.17-.13.84-.21,1.29-.2.9-.32,1.38c-.24,1-.51,2-.81,3.07-.35,1.28-.73,2.66-1.12,4.11l0,0a1.61,1.61,0,0,0,.38.12l.13,0,.19,0,.37.05.41.08.43.1c.27.07.54.14.8.23l.76.24.36.11.35.1.34.09.32.07.16,0h.14l.32,0c.18,0,.34,0,.5,0s.29,0,.41,0l.36,0h0a.14.14,0,0,1,.15.13.14.14,0,0,1-.06.13l-.33.22a2.82,2.82,0,0,1-.42.21,4.09,4.09,0,0,1-.6.2l-.32.06-.08,0h-.11l-.19,0-.39,0h-.4c-.28,0-.55,0-.83-.05l-.82-.1-.79-.11c-.25,0-.44-.06-.71-.08l-.37,0h-.18l-.22,0a3.16,3.16,0,0,1-.62-.14q-.17.67-.33,1.37a51.16,51.16,0,0,0-1.26,8.61c0,.21,0,.42,0,.63h.08l.72.08.79.08.44,0,.43,0c.28,0,.58,0,.87,0s.58,0,.86,0,.56-.06.82-.1.51-.12.75-.17.45-.15.66-.22l.53-.24a1.2,1.2,0,0,0,.23-.12l.19-.11.37-.21a.14.14,0,0,1,.17.21l-.28.32a2.67,2.67,0,0,1-.35.35c-.15.13-.32.28-.53.43s-.43.27-.67.41l-.39.18a3.55,3.55,0,0,1-.42.17,6.66,6.66,0,0,1-.91.27c-.16,0-.31.08-.47.1l-.48.07c-.32.05-.64.05-1,.08h-.9c-.29,0-.59,0-.86,0l-.71-.06c0,.06,0,.12,0,.18v.58c0,.2,0,.41,0,.61v.31l0,.29c0,.19,0,.39,0,.59a31.11,31.11,0,0,0,.7,4.81,26.23,26.23,0,0,0,1,3.22h0l.61,0h1.09l.37,0c.25,0,.51-.05.77-.07s.52-.08.78-.11.51-.1.75-.15.48-.11.71-.17.44-.11.63-.17l.54-.16.41-.14.37-.12h0a.14.14,0,0,1,.13.24l-.31.24-.36.27-.5.31a6.66,6.66,0,0,1-.61.34,6.86,6.86,0,0,1-.71.33,7.45,7.45,0,0,1-.78.29,8.59,8.59,0,0,1-.83.24c-.29.06-.56.14-.86.17l-.43.06-.21,0h-.2l-.38,0h-.41a20.35,20.35,0,0,0,1.18,2.21c.21.36.46.7.69,1s.49.68.77,1,.55.63.83.94.59.59.91.86a13.49,13.49,0,0,0,2,1.48,13.16,13.16,0,0,0,2.86,1.29l0-.17v-.37c0-.06,0-.13,0-.19v0h0v0h0v-.13c0-.28,0-.58.09-.87s.09-.59.17-.87.13-.57.22-.83.16-.53.24-.78l.24-.72.22-.63c.06-.19.13-.37.18-.53l.13-.43c.08-.24.12-.37.12-.37a.14.14,0,0,1,.27,0s0,.14,0,.39a7.9,7.9,0,0,1,.05,1c0,.22,0,.45,0,.7s0,.5-.05.76l-.14,1.61c0,.27,0,.53,0,.79s0,.5,0,.74v.09h0v0c0,.06,0,.13,0,.19s0,.25,0,.37.07.38.09.54l0,.12.19,0,.31,0c.21,0,.41,0,.62,0h.59l.69,0h.35l.3,0,.6-.06.61-.1a5.54,5.54,0,0,0,.61-.12,10.88,10.88,0,0,0,4.38-2.05,21.19,21.19,0,0,0,3.52-3.64,32.71,32.71,0,0,1,3.63-4.1,10.89,10.89,0,0,1,1.65-1.2l-.23-.12-.61-.29-.68-.26-.73-.22c-.25-.07-.5-.11-.75-.18s-.5-.09-.74-.14-.49-.08-.72-.11l-.34-.05h-.3l-1-.11-.38-.06a.14.14,0,0,1-.11-.16.14.14,0,0,1,.11-.11l.37-.08,1-.18.16,0h.19l.34,0c.24,0,.48,0,.75,0s.55,0,.83,0,.57,0,.85.08l.85.16.82.24c.26.1.5.21.74.3a4.49,4.49,0,0,1,.64.34,4.55,4.55,0,0,1,.52.32l0,0a8.43,8.43,0,0,1,2-.43c.24,0,.47,0,.71,0h.74l.31,0a2.17,2.17,0,0,1,.33,0l.76.13a2.75,2.75,0,0,1,.35.09l.33.1a4.91,4.91,0,0,1,.66.23l.63.27c.21.09.4.22.59.32a10.84,10.84,0,0,1,3.69,3.51,15.6,15.6,0,0,1,1.88,4.22l.26,1.05a4.58,4.58,0,0,1,.1.52l.08.52c0,.34.11.68.14,1s0,.67.08,1a19,19,0,0,1,0,1.9c0,.15,0,.31,0,.46v.25a.22.22,0,0,1,0,.06v.07l.27,0,.47.08a4.06,4.06,0,0,1,.46.12,3.45,3.45,0,0,1,.45.16,4.33,4.33,0,0,1,.43.21c.14.08.27.15.39.23l.35.25c.11.08.2.17.29.25a3.73,3.73,0,0,1,.39.43l.13.18a.15.15,0,0,1,0,.21.14.14,0,0,1-.09,0h-.22l-.24,0-.3,0-.34,0-.37,0-.78-.09-.38,0-.35,0-.3,0h-.34l-.06.73c0,.26-.05.52-.09.78l-.11.75c-.14,1-.27,1.88-.4,2.67l-.36,2.12c-.09.62-.17,1.14-.24,1.57-.13.86-.21,1.31-.21,1.31h0a.14.14,0,0,1-.27,0s0-.46,0-1.33c0-.43,0-1,0-1.6s.05-1.35.1-2.15.08-1.69.12-2.65c0-.48.06-1,.06-1.49s0-1.07,0-1.63c0-.14,0-.28,0-.43-.16.11-.34.21-.53.32s-.42.22-.65.3-.46.17-.69.25-.47.13-.71.17-.46.09-.69.12a9.68,9.68,0,0,1-1.21.08H83.4l-.37,0-.32,0a.14.14,0,0,1-.12-.16.14.14,0,0,1,.1-.12l.31-.09.8-.22.53-.15.58-.18.6-.21c.2-.07.4-.16.6-.25s.39-.17.57-.28.36-.2.53-.3.33-.2.46-.32l.21-.16.18-.15.22-.2a13,13,0,0,0-.14-1.44L88,123c0-.31-.13-.61-.19-.92l-.1-.46a3.53,3.53,0,0,0-.12-.46l-.28-.92a13.52,13.52,0,0,0-1.77-3.55,9.09,9.09,0,0,0-3-2.7,7,7,0,0,0-1.9-.71l-.45-.08a1.75,1.75,0,0,0-.28,0h-.81c-.18,0-.36,0-.53,0A6.66,6.66,0,0,0,74.74,115a28.18,28.18,0,0,0-3.11,3.61c0,.1,0,.21,0,.32s0,.2,0,.3,0,.19,0,.28l.07.6c0,.22.09.44.12.67s.12.45.17.68.05.23.09.34l.12.33a6.21,6.21,0,0,0,.24.65l.26.6c.09.19.19.36.28.52a4.1,4.1,0,0,0,.25.44l.21.33.18.31h0a.14.14,0,0,1-.05.19.14.14,0,0,1-.14,0l-.31-.2-.35-.24a2.83,2.83,0,0,1-.42-.36l-.47-.46c-.14-.18-.3-.37-.46-.58a5.06,5.06,0,0,1-.43-.67l-.2-.36c-.06-.12-.11-.25-.17-.37l-.16-.38a2.83,2.83,0,0,1-.14-.39c-.08-.26-.15-.52-.22-.77v0A18.93,18.93,0,0,1,67.55,123a13.54,13.54,0,0,1-5.42,2.62l-.36.08c0,.23,0,.44.07.67a6.94,6.94,0,0,1,0,.73c0,.24,0,.5,0,.74,0,.49-.08,1-.15,1.42,0,.22-.07.44-.1.64s-.07.39-.11.57c-.08.35-.13.65-.18.86s-.09.33-.09.33h0a.14.14,0,0,1-.18.1.14.14,0,0,1-.09-.08s0-.12-.12-.32-.07-.23-.12-.37a5,5,0,0,1-.13-.49c-.08-.36-.18-.78-.24-1.22l-.1-.68-.09-.69-.1-.67c0-.22-.06-.43-.1-.64s-.06-.41-.1-.58v0l-.36,0h-.34l-.69,0h-.79c-.25,0-.51,0-.76-.05l-.38,0-.38-.06a15,15,0,0,1-5.61-2l-.39.42c-.19.2-.4.39-.61.59s-.45.4-.7.59-.5.38-.76.55-.53.34-.81.48-.55.28-.82.4-.54.22-.8.3a7.11,7.11,0,0,1-.73.2l-.33.07-.31,0a3.9,3.9,0,0,1-.49,0h-.42a.14.14,0,0,1-.07-.26l.37-.2.41-.22.51-.3.59-.38c.21-.13.41-.29.63-.44s.43-.32.64-.5.42-.36.63-.54.42-.37.61-.57.39-.39.57-.57.36-.37.51-.56l.19-.22c-.3-.24-.6-.48-.89-.73s-.72-.68-1.07-1-.67-.72-1-1.1-.6-.77-.89-1.16-.55-.8-.79-1.21l-.27-.46-.52.11c-.27,0-.55.08-.84.09s-.59,0-.9,0l-.43,0h-.23l-.21,0c-.58-.07-1.15-.14-1.68-.24s-1-.19-1.45-.28l-.3-.07h-.09l-.12,0a1.1,1.1,0,0,1-.2-.1,1.39,1.39,0,0,1-.36-.4,1.58,1.58,0,0,0-.16-.21l-.07-.08a.14.14,0,0,1,.14-.24l.1,0a1.73,1.73,0,0,1,.3.13,1.12,1.12,0,0,0,.35.14h.12l.31-.05c.43-.07.93-.14,1.46-.19s1.09-.1,1.65-.13h.21l.2,0,.41,0,.74-.09c.22,0,.41-.07.6-.1L43,115a27.69,27.69,0,0,1-1.72-5.26,32.9,32.9,0,0,1-.53-3.35l-.3,0h-.81l-.45,0a8.12,8.12,0,0,1-.92-.13c-.31,0-.61-.13-.91-.21s-.6-.17-.88-.27-.56-.2-.83-.3c-.53-.2-1-.42-1.42-.59l-.56-.25-.44-.19-.38-.18a.14.14,0,0,1-.06-.19.14.14,0,0,1,.13-.08l.42,0c.26,0,.64,0,1.1.12l1.52.24.84.14c.29,0,.57.11.86.13s.57.09.84.1a7.47,7.47,0,0,0,.8.05H40l.37,0,.22,0c0-.09,0-.19,0-.28s0-.44,0-.66v-.63c0-.2,0-.41,0-.61v-.64c0-.42,0-.84,0-1.25s0-.83.07-1.23A50,50,0,0,1,41.6,93c-.2-.08-.42-.17-.65-.27s-.49-.23-.74-.36-.51-.28-.77-.45-.51-.35-.76-.54a8.1,8.1,0,0,1-.7-.63,6.88,6.88,0,0,1-.61-.68c-.09-.12-.17-.24-.25-.36a3.11,3.11,0,0,1-.22-.35L36.71,89c-.06-.11-.1-.23-.14-.34s-.09-.21-.12-.31l-.08-.3-.07-.26c0-.08,0-.15,0-.21,0-.26,0-.4,0-.4a.14.14,0,0,1,.13-.15.14.14,0,0,1,.13.06l.22.34.11.18.14.19a5.19,5.19,0,0,0,.34.43l.21.24.24.24a2.35,2.35,0,0,0,.26.24l.27.24c.2.15.4.31.62.45s.44.28.67.42.46.26.71.37.48.23.7.33.46.2.68.28l.35.14c.06-.24.11-.47.17-.71.68-2.72,1.44-5.16,2.08-7.3l.28-1-.13,0A13.55,13.55,0,0,1,41,80.52a19.13,19.13,0,0,1-1.62-1.18c-.25-.2-.48-.41-.7-.6s-.41-.4-.59-.6a5,5,0,0,1-.45-.57,2.54,2.54,0,0,1-.16-.29,1,1,0,0,1-.06-.18.37.37,0,0,1,0-.13,1.15,1.15,0,0,1,.09-.4l0-.11a.14.14,0,0,1,.18-.08.14.14,0,0,1,.09.14s0,0,0,.12a1.21,1.21,0,0,0,0,.14v.14h0c0-.06,0,0,0,0h0s0,.09,0,.09l0,0,.17.17c.14.12.31.26.5.4.39.28.87.59,1.39.9s1.09.63,1.67.92,1.16.58,1.71.82a11.86,11.86,0,0,0,1.49.54l.14,0c.33-1.18.61-2.25.87-3.18.12-.38.2-.74.3-1.08l.15-.49c0-.16.1-.31.13-.46.15-.58.32-1.07.43-1.5l0-.07c-.07-.2-.13-.41-.2-.61s-.13-.61-.2-.92v-.07h-.73a2.94,2.94,0,0,1-.52,0l-.51-.08-.25,0-.25-.07a7,7,0,0,1-1-.32l-.47-.2c-.16-.07-.3-.16-.46-.23l-.45-.25-.42-.29c-.14-.1-.28-.19-.41-.3l-.38-.33a8,8,0,0,1-.72-.7,8.59,8.59,0,0,1-.65-.77,3.82,3.82,0,0,1-.28-.41L38.68,68c-.18-.28-.32-.58-.47-.87s-.25-.61-.37-.92-.18-.63-.26-.95-.13-.64-.15-1l0-.49v-.24c0-.08,0-.16,0-.23l0-.47c0-.08,0-.14,0-.25l0-.23a.14.14,0,0,1,.16-.12.14.14,0,0,1,.12.12l0,.23c0,.05,0,.15,0,.22l.08.46c0,.08,0,.15,0,.23l.06.21.12.42c.08.28.21.56.3.83s.26.53.38.79.29.5.45.75.33.48.51.7l.28.33a2.7,2.7,0,0,0,.29.32,8,8,0,0,0,.62.59,6.27,6.27,0,0,0,.67.53l.34.25.36.22.36.21.38.18c.12.06.24.13.37.18l.39.15a6.58,6.58,0,0,0,.78.25l.2.06.2,0,.4.08c.27.05.54.06.81.1h.87l.75,0,.1.76c0,.26,0,.52.08.77s.08.52.13.77.12.52.2.77.16.51.26.76.19.5.32.74.24.49.38.72.27.47.43.69.31.45.49.65.35.42.55.61.39.39.6.56l.32.26a2.54,2.54,0,0,0,.33.24l.35.23.17.11.18.1.37.19.18.09.19.07a5.66,5.66,0,0,0,.79.27,5.27,5.27,0,0,0,.82.18,7.85,7.85,0,0,0,.84.09.14.14,0,0,1,0,.27Zm85.37,21a.13.13,0,0,1-.15,0l-.37-.48c-.12-.16-.28-.31-.44-.5s-.39-.38-.6-.61a9.37,9.37,0,0,0-.78-.63c-.28-.22-.6-.41-.92-.62l-.51-.28-.54-.26c-.18-.09-.37-.16-.56-.24s-.37-.15-.57-.22l-.58-.19c-.19-.05-.38-.12-.58-.16l-.57-.13-.57-.1c-.37,0-.73-.1-1.08-.12a4.76,4.76,0,0,0-.5,0h-.44l-.86,0h-.07c-.1.71-.22,1.4-.34,2.11-.07.48-.21.95-.31,1.42l-.17.71c-.05.23-.11.47-.18.7-.2.66-.38,1.31-.6,2h0l.24,0,.27.06.54.12c.35.09.66.21,1,.32s.63.27.93.42.6.32.87.51l.41.28.2.14.19.16a9.74,9.74,0,0,1,.75.64,9.29,9.29,0,0,1,.69.68l.33.35.3.37.3.37.28.39c.19.25.36.52.53.79s.32.54.47.82.28.56.42.84.25.57.37.86.21.58.32.88a.14.14,0,0,1-.25.11h0c-.15-.27-.29-.53-.44-.8s-.31-.52-.49-.77-.33-.5-.53-.73-.36-.48-.57-.69-.39-.45-.6-.66l-.31-.32-.33-.29-.33-.29-.35-.27a7.62,7.62,0,0,0-.71-.51,8.27,8.27,0,0,0-.74-.45l-.19-.11-.19-.09-.38-.18c-.25-.12-.52-.2-.78-.3l-.79-.22c-.27,0-.54-.1-.79-.12l-.37,0h-1l-.2,0h0l-.45,1-.29.64c-.09.21-.21.41-.31.62l-.63,1.21c-.2.41-.45.78-.67,1.17l-.69,1.13c-.48.73-1,1.42-1.44,2.1s-1,1.29-1.47,1.9-1,1.14-1.49,1.67-1,1-1.46,1.44l-.7.64c-.23.21-.45.41-.68.59-.46.37-.89.7-1.29,1s-.77.58-1.12.8c-.69.45-1.25.78-1.64,1l-.6.34a.14.14,0,0,1-.19-.06.15.15,0,0,1,0-.15l.41-.54c.28-.35.68-.86,1.22-1.48.28-.31.55-.66.86-1l1-1.2c.37-.41.72-.9,1.13-1.38s.83-1,1.24-1.53l.65-.82c.22-.28.46-.55.67-.85.43-.59.9-1.19,1.35-1.83s.88-1.31,1.31-2l.62-1.07c.2-.36.43-.72.61-1.1l.58-1.14c.09-.19.2-.38.29-.58l.26-.6.52-1.2.12-.33a1.89,1.89,0,0,0,0-.23c0-.13,0-.27-.05-.4l-.08-.39c0-.13-.08-.25-.11-.38l-.06-.19-.08-.18c-.05-.12-.09-.25-.16-.36l-.19-.35a5,5,0,0,0-.46-.65,2.43,2.43,0,0,0-.27-.3c-.1-.09-.19-.2-.29-.28l-.32-.26-.34-.23a3,3,0,0,0-.36-.21,3,3,0,0,0-.38-.18l-.4-.16-.41-.13a3.82,3.82,0,0,0-.41-.1,3.26,3.26,0,0,0-.43-.08l-.47-.05h-.43a3.45,3.45,0,0,0-.45,0c-.15,0-.3,0-.45,0l-.45,0c-.15,0-.3.05-.45.08l-.45.1-.44.12a8.74,8.74,0,0,0-.86.32c-.28.11-.56.28-.84.42h0a.14.14,0,0,1-.19-.06.14.14,0,0,1,0-.17,9.6,9.6,0,0,1,1.64-1l.45-.2a4.32,4.32,0,0,1,.46-.18c.16-.05.31-.12.47-.16l.48-.13c.16,0,.33-.07.49-.1a4.13,4.13,0,0,1,.5-.08l.25,0h.27l.48,0c.15,0,.33,0,.51,0s.36,0,.53,0l.52.08.51.12a4.32,4.32,0,0,1,.51.15,4.55,4.55,0,0,1,.5.19l.49.22.47.27c.16.09.3.21.45.31a4,4,0,0,1,.43.35,7.06,7.06,0,0,1,.78.79l.23.3,0-.07c.07-.21.12-.43.17-.65l.15-.66.16-.65.08-.33.06-.33c.16-.89.35-1.77.44-2.66.05-.45.13-.89.16-1.34s.07-.89.11-1.34c0-.19,0-.37,0-.55a4.4,4.4,0,0,1-.57,0h-.45l-.5,0-.52,0-.55.06-.57.07-.29,0-.29.06-.58.11a5.43,5.43,0,0,0-.59.12l-1.17.29-1.12.35c-.36.12-.7.26-1,.38s-.63.25-.91.38-.54.23-.77.34l-.59.3-.53.25a.14.14,0,0,1-.19-.07.14.14,0,0,1,0-.16l.43-.39.5-.44c.19-.17.44-.34.71-.53a8.33,8.33,0,0,1,.88-.58c.32-.18.66-.39,1-.57l1.14-.52,1.22-.44c.41-.14.84-.23,1.26-.34a10.72,10.72,0,0,1,1.25-.22l.6-.08.58,0,.55,0h.53a4.78,4.78,0,0,1,.56.09c0-.2,0-.4,0-.6q0-.67,0-1.34c0-.45,0-.86,0-1.29,0-.94-.08-1.86-.14-2.76h-.38l-.87,0h-.92c-.33,0-.66,0-1,0s-.69.06-1,.1-.69.1-1,.15-.67.13-1,.19a9.06,9.06,0,0,0-.92.23l-.43.11-.39.13-.69.22-.54.21-.47.18a.14.14,0,0,1-.13-.24l.4-.31.46-.34c.19-.12.41-.26.65-.4l.38-.22.42-.2a10.08,10.08,0,0,1,.93-.4,9.74,9.74,0,0,1,1-.35c.36-.1.72-.21,1.09-.28s.74-.16,1.11-.19.73-.1,1.08-.11l.52,0h.52l.88,0h.19c0-.21,0-.42-.06-.63-.16-1.57-.36-3.06-.56-4.43h0l-.33,0a23.31,23.31,0,0,0-3,.52c-.48.11-.94.24-1.37.37l-.63.2-.58.21c-.37.14-.71.28-1,.41s-.55.25-.75.36l-.64.35h0a.14.14,0,0,1-.15-.23l.61-.44c.19-.14.44-.29.72-.47l1-.56.56-.3.61-.3c.43-.2.88-.4,1.36-.59a24.65,24.65,0,0,1,3.07-1l.36-.09c-.13-.79-.25-1.54-.36-2.23s-.17-1.1-.25-1.59l-.08-.65c-.1.12-.21.23-.32.34s-.27.28-.42.4l-.44.37-.46.34a5.52,5.52,0,0,1-.48.32c-.16.1-.32.21-.49.29l-.5.27-.52.23c-.17.08-.35.14-.53.21a5.25,5.25,0,0,1-.54.18,9.2,9.2,0,0,1-1.11.27l-.57.07h-.58a5.33,5.33,0,0,1-1.15-.2,8.88,8.88,0,0,1-1.06-.38,10.57,10.57,0,0,1-1-.49c-.32-.18-.64-.37-.94-.58a9.51,9.51,0,0,1-.88-.67,5.8,5.8,0,0,1-.77-.81.14.14,0,0,1,.21-.18h0a5.75,5.75,0,0,0,.78.7,9.21,9.21,0,0,0,.89.58,11.33,11.33,0,0,0,1.92.88,8.54,8.54,0,0,0,1,.29,4.59,4.59,0,0,0,1,.1l.5,0,.5-.1a8.32,8.32,0,0,0,1-.3,4.64,4.64,0,0,0,.48-.2c.16-.07.32-.13.47-.22l.45-.24.44-.27c.15-.09.28-.2.42-.29a4.9,4.9,0,0,0,.41-.31l.39-.33.37-.35c.13-.11.23-.25.34-.37a3.61,3.61,0,0,0,.32-.39c.09-.14.2-.26.29-.4l.25-.42c.08-.14.13-.29.21-.44l.1-.22.08-.22a8.53,8.53,0,0,0,.27-.9h0l.13-.52.46,0,1-.08c.33-.06.66-.1,1-.17l.48-.12.24-.06.23-.08.47-.17.45-.21a8,8,0,0,0,.87-.48c.14-.09.27-.19.4-.29l.2-.15.18-.16.37-.34.33-.37a4.18,4.18,0,0,0,.31-.39,3.11,3.11,0,0,0,.28-.41c.08-.15.18-.28.25-.43l.21-.45a6.77,6.77,0,0,0,.32-1l.06-.24c0-.08,0-.16,0-.24s.07-.32.07-.5l0-.51c0-.16,0-.33,0-.5a13.6,13.6,0,0,0-.32-2.05,9.25,9.25,0,0,0-.29-1,5.06,5.06,0,0,0-.2-.47c0-.08-.08-.14-.12-.21l-.15-.21h0a.14.14,0,0,1,0-.19.14.14,0,0,1,.19,0c.06.07.12.13.17.21s.11.16.15.24a4.86,4.86,0,0,1,.24.49,9.9,9.9,0,0,1,.36,1,14,14,0,0,1,.45,2.1c0,.18,0,.36,0,.55s0,.36,0,.54,0,.37,0,.55,0,.19,0,.28l-.05.27a7.67,7.67,0,0,1-.29,1.07l-.21.52c-.07.17-.17.33-.25.5a4,4,0,0,1-.28.48,5.3,5.3,0,0,1-.32.46L134,67c-.12.14-.26.27-.39.4l-.2.2-.22.18c-.15.12-.29.25-.44.36a8.52,8.52,0,0,1-.95.6c-.16.09-.33.18-.5.26l-.51.22-.26.11-.27.09-.53.17c-.36.1-.72.17-1.08.26l-.58.08,0,.12a2.44,2.44,0,0,1-.12.43c0,.12.06.25.08.38s0,.16,0,.25v0s0-.07,0,0h0l0,.06,0,.12c0,.16.06.32.11.52.08.37.14.81.23,1.28s.19,1,.31,1.54L129.3,77l.87,0c1,0,2,.08,2.77.14.41,0,.78.06,1.12.11s.62.09.86.14a3.21,3.21,0,0,1,.57.16l.18.08a.14.14,0,0,1-.08.26h0l-.19,0a1.23,1.23,0,0,0-.22,0h-.29c-.23,0-.51,0-.83.07l-1.08.14-1.28.2-1.43.23-.65.1c.26,1.33.51,2.76.74,4.29.2,1.32.35,2.71.47,4.15h0a2.8,2.8,0,0,1,.4-.1l.45-.07a2.78,2.78,0,0,1,.45,0h.7l.25,0a7.21,7.21,0,0,1,1,.13,7.94,7.94,0,0,1,1,.26,8.41,8.41,0,0,1,1,.35l.46.2c.15.07.29.15.43.22s.55.29.79.45.47.3.67.45a10.66,10.66,0,0,1,.94.74l.34.3a.14.14,0,0,1,0,.2.14.14,0,0,1-.14,0l-.43-.14-.49-.17-.62-.21c-.22-.08-.48-.15-.73-.23s-.53-.16-.81-.24-.57-.16-.86-.22-.29-.08-.44-.1l-.44-.08a7.47,7.47,0,0,0-.87-.12,5.86,5.86,0,0,0-.83,0h-.36l-.42,0a1.84,1.84,0,0,0-.35,0l-.29.05a3,3,0,0,1-.54.12H131c0,.18,0,.35,0,.52,0,.44,0,.89,0,1.34s0,.94,0,1.41,0,.94,0,1.41-.05.95-.08,1.42c0,0,0,.07,0,.1l.63,0h.61c.19,0,.39,0,.59.05a11.62,11.62,0,0,1,1.26.2l.65.16c.22.06.44.14.66.21s.44.16.65.25a6.27,6.27,0,0,1,.64.29,9.85,9.85,0,0,1,1.22.68c.19.13.38.25.56.39l.52.42a10,10,0,0,1,.89.89c.27.29.48.61.69.88l.26.42a4.33,4.33,0,0,1,.21.39,5.5,5.5,0,0,1,.3.66c.13.36.19.58.19.58A.14.14,0,0,1,141.34,101.69Z"/><path class="cls-2" d="M131.57,97.08Z"/></g></g></svg>