<svg id="Layer_1" data-name="Layer 1" xmlns="http://www.w3.org/2000/svg" width="208" height="194" viewBox="0 0 208 194">
  <title>impatience</title>
  <g>
    <path d="M1.08,127.23a102.92,102.92,0,0,1,205.83,0Z" style="fill: #d3f0f6"/>
    <ellipse cx="109.82" cy="175.74" rx="84.34" ry="17.76" style="opacity: 0.1"/>
    <polygon points="180.05 80.49 93.33 80.49 94.56 92.65 180.05 92.53 180.05 80.49" style="fill: #ea4e2a"/>
    <polygon points="180.17 93.63 94.68 93.39 95.91 103.21 179.44 102.97 180.17 93.63" style="fill: #ea4e2a"/>
    <polygon points="183.49 74.22 89.4 74.22 89.15 80.24 182.75 80.12 183.49 74.22" style="fill: #ffb948"/>
    <polygon points="179.53 80.12 92.96 79.87 93.94 86.26 180.03 92.54 179.53 80.12" style="fill: #c13b25"/>
    <polygon points="179.33 91.06 94.39 91.06 94.58 92.64 96.16 92.54 96.48 93.43 178.74 93.53 179.33 91.06" style="fill: #c13b25"/>
    <polygon points="179.14 101.42 95.41 101.68 95.67 103.26 179.56 106.71 179.14 101.42" style="fill: #c13b25"/>
    <path d="M94.88,75.77l30,.3-20.23,1.09Z" style="fill: #ffe04a"/>
    <polygon points="129.61 78.53 141.15 77.54 146.38 78.43 129.61 78.53" style="fill: #ffe04a"/>
    <ellipse cx="99.07" cy="98.51" rx="0.94" ry="0.84" style="fill: #c13b25"/>
    <ellipse cx="97.05" cy="85.14" rx="0.94" ry="0.84" style="fill: #ea4e2a"/>
    <ellipse cx="174.11" cy="86.91" rx="0.94" ry="0.84" style="fill: #ea4e2a"/>
    <ellipse cx="174.99" cy="98.26" rx="0.94" ry="0.84" style="fill: #c13b25"/>
    <polygon points="180.05 103.31 93.33 103.31 94.56 115.47 180.05 115.34 180.05 103.31" style="fill: #ea4e2a"/>
    <polygon points="180.17 116.45 94.68 116.2 95.91 126.03 179.44 125.79 180.17 116.45" style="fill: #ea4e2a"/>
    <polygon points="179.33 113.88 94.39 113.88 94.58 115.46 96.16 115.36 96.48 116.25 178.74 116.34 179.33 113.88" style="fill: #c13b25"/>
    <polygon points="179.14 124.24 95.41 124.5 95.67 126.08 179.56 129.53 179.14 124.24" style="fill: #c13b25"/>
    <ellipse cx="99.07" cy="121.33" rx="0.94" ry="0.84" style="fill: #c13b25"/>
    <ellipse cx="97.05" cy="107.96" rx="0.94" ry="0.84" style="fill: #ea4e2a"/>
    <ellipse cx="174.11" cy="109.73" rx="0.94" ry="0.84" style="fill: #ea4e2a"/>
    <ellipse cx="174.99" cy="121.08" rx="0.94" ry="0.84" style="fill: #c13b25"/>
    <polygon points="180.05 126.13 93.33 126.13 94.56 138.29 180.05 138.16 180.05 126.13" style="fill: #ea4e2a"/>
    <polygon points="180.17 139.27 94.68 139.02 95.91 148.85 179.44 148.6 180.17 139.27" style="fill: #ea4e2a"/>
    <polygon points="179.33 136.7 94.39 136.7 94.58 138.27 96.16 138.18 96.48 139.06 178.74 139.16 179.33 136.7" style="fill: #c13b25"/>
    <polygon points="179.14 147.06 95.41 147.32 95.67 148.9 179.56 152.35 179.14 147.06" style="fill: #c13b25"/>
    <ellipse cx="99.07" cy="144.14" rx="0.94" ry="0.84" style="fill: #c13b25"/>
    <ellipse cx="97.05" cy="130.78" rx="0.94" ry="0.84" style="fill: #ea4e2a"/>
    <ellipse cx="174.11" cy="132.55" rx="0.94" ry="0.84" style="fill: #ea4e2a"/>
    <ellipse cx="174.99" cy="143.9" rx="0.94" ry="0.84" style="fill: #c13b25"/>
    <polygon points="180.05 148.94 93.33 148.94 94.56 161.11 180.05 160.98 180.05 148.94" style="fill: #ea4e2a"/>
    <polygon points="180.17 162.09 94.68 161.84 95.91 171.67 179.44 171.42 180.17 162.09" style="fill: #ea4e2a"/>
    <polygon points="179.33 159.51 94.39 159.51 94.58 161.09 96.16 161 96.48 161.88 178.74 161.98 179.33 159.51" style="fill: #c13b25"/>
    <polygon points="179.14 169.87 95.41 170.14 95.67 171.72 179.56 175.16 179.14 169.87" style="fill: #c13b25"/>
    <ellipse cx="99.07" cy="166.96" rx="0.94" ry="0.84" style="fill: #c13b25"/>
    <ellipse cx="97.05" cy="153.6" rx="0.94" ry="0.84" style="fill: #ea4e2a"/>
    <ellipse cx="174.11" cy="155.37" rx="0.94" ry="0.84" style="fill: #ea4e2a"/>
    <ellipse cx="174.99" cy="166.72" rx="0.94" ry="0.84" style="fill: #c13b25"/>
    <path id="_Path_" data-name="&lt;Path&gt;" d="M57.34,46.73c-22,14.77-23.08,19.81-6,24.45-3.53,5.13-13.2,6.88-14.61,3.62C20.82,63.07,29.38,60.11,52,43.19Z" style="fill: #ffc522"/>
    <path id="_Path_2" data-name="&lt;Path&gt;" d="M44.3,71.42a24.79,24.79,0,0,1,6.85,0C48.08,75.55,41,77.38,38,76,37.86,74.43,39.26,72.07,44.3,71.42Z" style="opacity: 0.1"/>
    <path id="_Path_3" data-name="&lt;Path&gt;" d="M82.09,55.19c.07,4.11,12.38,8,21.51,7.39.81,4.78-3.31,15.2-5.7,12.58C87.77,72,70.47,61.69,72.68,55.88,74.58,50.89,82,51.35,82.09,55.19Z" style="fill: #ffc522"/>
    <path id="_Path_4" data-name="&lt;Path&gt;" d="M79.12,54.82C77.25,58.89,90.94,65.3,98.81,68c-3,6.07-1.24,6.29-.77,7.42,1,.11-30.14-10.64-24.48-21.48C76.06,49.12,80.48,51.88,79.12,54.82Z" style="opacity: 0.1"/>
    <path id="_Path_5" data-name="&lt;Path&gt;" d="M99,67.78a24.79,24.79,0,0,1,4.47-5.18c1.13,5-2.51,13.56-5.21,13C97,74.61,96.18,72,99,67.78Z" style="opacity: 0.1"/>
    <path id="_Path_6" data-name="&lt;Path&gt;" d="M77.23,22.41c-.85-9-7.78-18.58-14.73-18.56-4.19.39-1.28,11-.44,20s4.93,16,9.12,15.64S78.08,31.44,77.23,22.41Z" style="fill: #6b401c"/>
    <path id="_Path_7" data-name="&lt;Path&gt;" d="M69,23.39c-.85-9,5.69-22.86-14.15-19-5.67,2-11.2,12.47-10.36,21.5S58.78,40.84,63,40.45,69.87,32.42,69,23.39Z" style="fill: #6b401c"/>
    <path id="_Path_8" data-name="&lt;Path&gt;" d="M60.73,175.35c-1.2-1.23-2.11-1.23-3.94.49s-5.17,5.3-4.07,6,4.38-.44,6.16-2.13S62.21,176.87,60.73,175.35Z" style="fill: #477db2"/>
    <path id="_Path_9" data-name="&lt;Path&gt;" d="M61,174.62c-1.2-1.23-2.11-1.23-3.94.49s-5.17,5.3-4.07,6,4.38-.44,6.16-2.13S62.43,176.14,61,174.62Z" style="fill: #af4f88"/>
    <path id="_Path_10" data-name="&lt;Path&gt;" d="M58,167.36l2.35.29.07,7.11a1.59,1.59,0,0,1-2.13-.07Z" style="fill: #ffc48f"/>
    <path id="_Path_11" data-name="&lt;Path&gt;" d="M73.91,175.86c.77-1.44,2-1.67,5.73-.59,3.51,1,8.3,2,8.2,3.08s-4.31,1-8.16.69S73,177.63,73.91,175.86Z" style="fill: #477db2"/>
    <path id="_Path_12" data-name="&lt;Path&gt;" d="M74,175.12c.77-1.44,2-1.67,5.73-.59,3.51,1,8.3,2,8.2,3.08s-4.31,1-8.16.69S73,176.9,74,175.12Z" style="fill: #af4f88"/>
    <polygon id="_Path_13" data-name="&lt;Path&gt;" points="77.87 174.25 80.76 174.93 79.92 176.08 76.69 175.56 77.87 174.25" style="fill: #f5f0ff"/>
    <path id="_Path_14" data-name="&lt;Path&gt;" d="M74.72,166.92l2.86-2.13-.44,9.38c-.5,1-1.15.7-2.2.22Z" style="fill: #ffc48f"/>
    <path id="_Path_15" data-name="&lt;Path&gt;" d="M68.73,97.8l11-14.41c7.1,28.71-2,25.47-1.74,87.77-2.13.39-3.26-.41-4.62.29C75.78,107.28,72.34,98.5,68.73,97.8Z" style="fill: #477db2"/>
    <path id="_Path_16" data-name="&lt;Path&gt;" d="M54.85,82.87l9.62,14.74c-5.83,3.24-3.64,28.89-3.09,74-1.77-.1-3.23,0-4-.15C56.64,125.3,46.83,111.2,54.85,82.87Z" style="fill: #477db2"/>
    <path id="_Path_17" data-name="&lt;Path&gt;" d="M55.18,83.91,80.13,87,71.51,99.3c-3.41-2.46-7.88-3.21-10.36,1.23Z" style="fill: #477db2"/>
    <path id="_Path_18" data-name="&lt;Path&gt;" d="M52.87,90.25a65.43,65.43,0,0,1,2-7.39l.71.92,20.23-.09,2.88-2a89.86,89.86,0,0,1,2.49,8.89C72.6,95.27,58.2,96.07,52.87,90.25Z" style="opacity: 0.1"/>
    <path id="_Path_19" data-name="&lt;Path&gt;" d="M51.46,43.59a7.88,7.88,0,0,1,6.23-6c8.47-1,14.91-3.36,23.83,14.42a7.23,7.23,0,0,1-4.44,7.8c-3.69,18.44.76,14,3.59,26.85.62,3.2-30.07,8.13-29.3.89C65.92,64.25,48.33,58.58,51.46,43.59Z" style="fill: #ffc522"/>
    <path id="_Path_20" data-name="&lt;Path&gt;" d="M68.64,46c-3.4-.08-11.6-3.8-14.66-6.62a7.85,7.85,0,0,1,3.72-1.83c4.55-.54,8.52-1.47,12.6.55C73,40.27,73,43.93,68.64,46Z" style="fill: #ba6e3a"/>
    <path id="_Path_21" data-name="&lt;Path&gt;" d="M54.52,57.64l0-.16c5.68,5.66,18,3.92,22.78,2.27-1,1.52-.88,4.2-1.22,6C69.47,70.61,60.16,68.71,54.52,57.64Z" style="opacity: 0.1"/>
    <path id="_Path_22" data-name="&lt;Path&gt;" d="M68.21,45.33c-3-.07-10.32-3.45-13-6a6.94,6.94,0,0,1,3.31-1.66c4.05-.49,7.58-1.34,11.21.49C72.13,40.11,72.12,43.44,68.21,45.33Z" style="fill: #ffc48f"/>
    <rect id="_Path_23" data-name="&lt;Path&gt;" x="59.66" y="28.09" width="5.47" height="10.95" style="fill: #ffc48f"/>
    <path d="M65.11,36.88c0-.31.15-5,0-5-1.61,0-6.8-14.31-5.48,5.47l-1.92.25a7.85,7.85,0,0,0-5.51,4.12l0,0a9.18,9.18,0,0,0-.67,1.93C29.24,60.16,20.94,63.16,36.7,74.8c.59,1.36,2.61,1.84,5,1.57A7.35,7.35,0,0,1,38,76c-.07-1.23.81-3,3.74-4-11.32-8.76-8.94-13,5.78-22.86,2.13-1.59,7.05-.53,9.86-2.41l-1.56-1.53c3,1.43,7.52,2.09,12.44,1.57a28.13,28.13,0,0,0,8.86-2.34C72.85,38.53,69.07,37,65.11,36.88Z" style="opacity: 0.1"/>
    <path id="_Path_24" data-name="&lt;Path&gt;" d="M50.38,23.59c-1.26-7.3,3.88-15.22,10.26-16.32S72.17,8.64,73.54,18.9c-2.37,8.36-4.32,12.48-8.28,13C62.41,32,60.38,31.07,50.38,23.59Z" style="fill: #ffc48f"/>
    <path id="_Path_25" data-name="&lt;Path&gt;" d="M44.39,26.26c-.84-9,4.83-19.37,8.75-19.74S57.76,16,58.6,24.93,56.94,41.44,53,41.81,45.23,35.22,44.39,26.26Z" style="fill: #6b401c"/>
    <path id="_Path_26" data-name="&lt;Path&gt;" d="M52.63,9.23c0-1.5,2.89-5.38,6.94-5.38s9.28,3.71,7,4.59c-2.54,1.56-8.89,1.47-10.07,10C52.49,18.41,52.63,10.73,52.63,9.23Z" style="fill: #6b401c"/>
    <path id="_Path_27" data-name="&lt;Path&gt;" d="M68.17,19.59c0-2.37,1-2.93,2.64-2.93s3.32,2.32,3.32,4.69S70,30.41,67,31.09C65.4,31.09,68.17,22,68.17,19.59Z" style="fill: #ffc48f"/>
    <path id="_Path_28" data-name="&lt;Path&gt;" d="M69.59,22.15c0-.49-.5-.88-1.16-1a1.94,1.94,0,0,1,.65-.12c.81,0,1.47.46,1.47,1s-.66,1-1.47,1a1.88,1.88,0,0,1-.31,0A1.06,1.06,0,0,0,69.59,22.15Z" style="opacity: 0.1"/>
    <path id="_Path_29" data-name="&lt;Path&gt;" d="M64,18.27c0-1.43.53-2.44,1.07-2.44s.88,1,.88,2.44-.44,2.59-1,2.59S64,19.7,64,18.27Z" style="fill: #544030"/>
    <ellipse id="_Path_30" data-name="&lt;Path&gt;" cx="70.81" cy="18.12" rx="0.88" ry="2.34" style="fill: #544030"/>
    <path id="_Path_31" data-name="&lt;Path&gt;" d="M63,28.33c2.6-1.3,4.24-2,7.54-1.33C67.15,22.35,64.15,25.8,63,28.33Z" style="fill: #6b401c"/>
    <path id="_Path_32" data-name="&lt;Path&gt;" d="M65.73,13a2.46,2.46,0,0,1,.62.85l-.23.28a2.4,2.4,0,0,0-.44-.5,3.26,3.26,0,0,0-4.09.31l-.34-.28C62.61,12.3,64.54,12,65.73,13Z" style="fill: #6b401c"/>
    <path id="_Path_33" data-name="&lt;Path&gt;" d="M72.58,14.12a2.49,2.49,0,0,1,.78.55l-.11.27a2.42,2.42,0,0,0-.52-.31,2.86,2.86,0,0,0-3.38,1.09L69,15.57A2.91,2.91,0,0,1,72.58,14.12Z" style="fill: #6b401c"/>
    <path id="_Path_34" data-name="&lt;Path&gt;" d="M64.31,27.11a8.77,8.77,0,0,1,5.13-.59l-1-1a5,5,0,0,0-3.16.18Z" style="fill: #f7eef2"/>
    <path id="_Path_35" data-name="&lt;Path&gt;" d="M56,20c-.14-1.17.17-2.16.69-2.22s.44.61.58,1.78S57.68,22,57.16,22,56.1,21.2,56,20Z" style="fill: #ffc48f"/>
    <path id="_Path_36" data-name="&lt;Path&gt;" d="M68.49,45.17l-1.83-2L67.17,45A.84.84,0,0,0,68.49,45.17Z" style="opacity: 0.1"/>
    <path id="_Path_37" data-name="&lt;Path&gt;" d="M50.58,39.23A6.23,6.23,0,0,1,47.8,38a28.85,28.85,0,0,1-3.41-11.69,24.89,24.89,0,0,1,1.47-10.37c1.9-5.55,5.43-10.22,9-11.45a29,29,0,0,1,6.86-.65C56.25,8.4,47,19.06,50.58,39.23Z" style="fill: #ffeea9;opacity: 0.5"/>
    <path id="_Path_38" data-name="&lt;Path&gt;" d="M57.81,10.59s3.37,1.73-.37,13.33C57.44,23.93,59.68,14.17,57.81,10.59Z" style="fill: #6b401c"/>
    <path id="_Path_39" data-name="&lt;Path&gt;" d="M49.79,18.41s-2.93,9.48,1.47,22.09C51.26,40.5,44.32,29.65,49.79,18.41Z" style="fill: #6b401c"/>
    <polygon id="_Path_40" data-name="&lt;Path&gt;" points="57.86 174.47 59.47 175.05 57.56 177.69 55.8 176.59 57.86 174.47" style="fill: #f5f0ff"/>
    <path id="_Path_41" data-name="&lt;Path&gt;" d="M120.23,68.68l-.44-.1-.49-.09h0l-3-.58-.23,1,.23-1-2.9-.55L111,66.91l-.35.06c.25.53,1.24,2.41,2.85,2.5.85.05,2.48.15,4.07.15a18,18,0,0,0,3.1-.2h0a1.73,1.73,0,0,0,.92-.39s0,0,0,0A11.48,11.48,0,0,0,120.23,68.68Z" style="fill: #ffc48f"/>
    <path id="_Path_42" data-name="&lt;Path&gt;" d="M113.44,69.08c.85.05,2.48.15,4.07.15a18,18,0,0,0,3.1-.2h0a3.17,3.17,0,0,0,.55-.16,2.74,2.74,0,0,1,.48.13s0,0,0,0a1.73,1.73,0,0,1-.92.39h0a18,18,0,0,1-3.1.2c-1.59,0-3.22-.1-4.07-.15-1.61-.09-2.6-2-2.85-2.5l.11,0C111.2,67.7,112.11,69,113.44,69.08Z" style="opacity: 0.1"/>
    <path id="_Path_43" data-name="&lt;Path&gt;" d="M122.46,71l-.41-.19-.46-.19h0c-1.57-.67-3.68-1.54-5.36-2.23l-.12.54.12-.54-.15-.06c-1-.4-1.84-.67-2.31-.85l-.32-.08c.14.57.73,2.61,2.29,3,.82.22,2.4.65,4,1a18,18,0,0,0,3.08.43h0a1.74,1.74,0,0,0,1-.19s0,0,0,0A11.32,11.32,0,0,0,122.46,71Z" style="fill: #ffc48f"/>
    <path id="_Path_44" data-name="&lt;Path&gt;" d="M116.79,69.5c.79.3,2.32.88,3.84,1.36a18,18,0,0,0,3,.73h.12a1.74,1.74,0,0,1-1,.19h0a18,18,0,0,1-3.08-.43c-1.56-.33-3.14-.75-4-1-1.55-.41-2.15-2.46-2.29-3A32.84,32.84,0,0,0,116.79,69.5Z" style="opacity: 0.1"/>
    <path id="_Path_45" data-name="&lt;Path&gt;" d="M116.29,68.11l-.19.81.19-.81h0a.28.28,0,0,0-.33.21l-.53,2.27a.28.28,0,0,0,.54.13l.53-2.27A.27.27,0,0,0,116.29,68.11Z" style="fill: #ffc48f"/>
    <path id="_Path_46" data-name="&lt;Path&gt;" d="M114.25,67.64s-.08,2.75,1.59,3.6,6.65,3.42,7.63,2.87C123.3,73.85,114.25,67.64,114.25,67.64Z" style="fill: #ffc48f"/>
    <path id="_Path_47" data-name="&lt;Path&gt;" d="M115.69,69.73l.75.41a2.12,2.12,0,0,0,.28.25,40.57,40.57,0,0,0,5.92,3.76c-1.78-.31-5.43-2.2-6.8-2.9a3.24,3.24,0,0,1-1.47-2.36Z" style="opacity: 0.1"/>
    <path id="_Path_48" data-name="&lt;Path&gt;" d="M114.43,67.65S112.9,66.77,105,66l-5.48,1.26a30.72,30.72,0,0,0-.29,3.23c0,.17,0,.33,0,.49,3.06-1.13,5.44-1.59,6.16-.7a3.65,3.65,0,0,0,.58.58,2,2,0,0,0,.44.36,4.54,4.54,0,0,0,2.31.57c.89-.11,2.13,2.17,3.09,2.64a4.17,4.17,0,0,0,2,.44c.18,0,.3-.09.28-.19s-.74-.82-1.37-1.85a17,17,0,0,0-1.61-2.2c1-.37,1.86-.65,2.43-.27,2,1.34,4.62,5.72,6.65,5.44C120.19,75.47,114.43,67.65,114.43,67.65Z" style="fill: #ffc48f"/>
    <path id="_Path_49" data-name="&lt;Path&gt;" d="M113.35,73.67a4.6,4.6,0,0,1-1.59-.44c-1-.48-2.2-2.76-3.09-2.64a4.54,4.54,0,0,1-2.31-.57,2,2,0,0,1-.44-.36,3.67,3.67,0,0,1-.58-.58c-.71-.89-3.05-.44-6.06.66,0,.24,0,.48,0,.73s0,.33,0,.49c3.06-1.13,5.44-1.59,6.16-.7a3.65,3.65,0,0,0,.58.58,2,2,0,0,0,.44.36,4.54,4.54,0,0,0,2.31.57c.89-.11,2.13,2.17,3.09,2.64a4.17,4.17,0,0,0,2,.44c.18,0,.3-.09.28-.19S113.77,74.22,113.35,73.67Z" style="opacity: 0.1"/>
    <path id="_Path_50" data-name="&lt;Path&gt;" d="M113.53,69.16c-.57-.38-2.6,1.11-2.35,1.44.7-.22,1.77-.69,2.41-.26,2,1.33,4.62,5.72,6.65,5.44a11.37,11.37,0,0,0-.84-1.27C117.51,73.84,115.29,70.33,113.53,69.16Z" style="opacity: 0.1"/>
    <path id="_Path_51" data-name="&lt;Path&gt;" d="M56.2,72.84c2.79-1.37,5.8-.56,6.14,1.49s-1.85,4.1-4.88,4.6-6.64-3.76-7-5.8S53.45,74.19,56.2,72.84Z" style="fill: #ffc48f"/>
    <path id="_Path_52" data-name="&lt;Path&gt;" d="M50.82,71.76c1.62.7,4,2.08,3.77,2.7a1.78,1.78,0,0,1-2.62.92c-1.62-.7-4.83-3.14-4.56-3.77S49.2,71.05,50.82,71.76Z" style="fill: #ffc48f"/>
    <ellipse id="_Path_53" data-name="&lt;Path&gt;" cx="57.07" cy="76.12" rx="0.73" ry="2.15" transform="translate(-12.97 11.73) rotate(-10.55)" style="fill: #ffc48f"/>
    <ellipse id="_Path_54" data-name="&lt;Path&gt;" cx="59.24" cy="75.52" rx="0.73" ry="2.15" transform="matrix(0.98, -0.18, 0.18, 0.98, -12.82, 12.12)" style="fill: #ffc48f"/>
    <ellipse id="_Path_55" data-name="&lt;Path&gt;" cx="61.37" cy="75.72" rx="2.15" ry="0.73" transform="translate(-35.93 81.38) rotate(-54.3)" style="fill: #ffc48f"/>
    <ellipse id="_Path_56" data-name="&lt;Path&gt;" cx="60.24" cy="72.85" rx="0.73" ry="2.15" transform="translate(-20.72 121.66) rotate(-81.5)" style="fill: #ffc48f"/>
  </g>
</svg>
