<svg id="Layer_1" data-name="Layer 1" xmlns="http://www.w3.org/2000/svg" xmlns:xlink="http://www.w3.org/1999/xlink" width="208" height="195" viewBox="0 0 208 195">
  <defs>
    <filter id="luminosity-noclip" x="106.43" y="-8289" width="20.03" height="32766" filterUnits="userSpaceOnUse" color-interpolation-filters="sRGB">
      <feFlood flood-color="#fff" result="bg"/>
      <feBlend in="SourceGraphic" in2="bg"/>
    </filter>
    <mask id="mask" x="106.43" y="-8289" width="20.03" height="32766" maskUnits="userSpaceOnUse">
      <g style="filter: url(#luminosity-noclip)"/>
    </mask>
    <linearGradient id="linear-gradient" x1="126.78" y1="155.37" x2="99.33" y2="31.23" gradientUnits="userSpaceOnUse">
      <stop offset="0" stop-color="#4d4d4d"/>
      <stop offset="1" stop-color="#fff"/>
    </linearGradient>
    <filter id="luminosity-noclip-2" x="98.38" y="-8289" width="6.54" height="32766" filterUnits="userSpaceOnUse" color-interpolation-filters="sRGB">
      <feFlood flood-color="#fff" result="bg"/>
      <feBlend in="SourceGraphic" in2="bg"/>
    </filter>
    <mask id="mask-2" x="98.38" y="-8289" width="6.54" height="32766" maskUnits="userSpaceOnUse">
      <g style="filter: url(#luminosity-noclip-2)"/>
    </mask>
    <linearGradient id="linear-gradient-2" x1="110.91" y1="95.97" x2="101.79" y2="75.45" xlink:href="#linear-gradient"/>
    <filter id="luminosity-noclip-3" x="106.43" y="38.04" width="20.03" height="113.59" filterUnits="userSpaceOnUse" color-interpolation-filters="sRGB">
      <feFlood flood-color="#fff" result="bg"/>
      <feBlend in="SourceGraphic" in2="bg"/>
    </filter>
    <mask id="mask-3" x="106.43" y="38.04" width="20.03" height="113.59" maskUnits="userSpaceOnUse">
      <g style="mask: url(#mask);filter: url(#luminosity-noclip-3)">
        <path d="M112,79.58c-6.12-21.37,7.65-22,5.1-41.41-.68-1-4.9,3.83-5.93,6.68-3.08,8.55-6.7,15.87-3.59,33.12,13.07,20.93-6.53,50.09,2.16,72.39,6.07,1.66,11.75,1.94,16.68-.88C117.06,127.13,125.26,100.76,112,79.58Z" style="mix-blend-mode: multiply;fill: url(#linear-gradient)"/>
      </g>
    </mask>
    <filter id="luminosity-noclip-4" x="98.38" y="55.16" width="6.54" height="33.77" filterUnits="userSpaceOnUse" color-interpolation-filters="sRGB">
      <feFlood flood-color="#fff" result="bg"/>
      <feBlend in="SourceGraphic" in2="bg"/>
    </filter>
    <mask id="mask-4" x="98.38" y="55.16" width="6.54" height="33.77" maskUnits="userSpaceOnUse">
      <g style="mask: url(#mask-2);filter: url(#luminosity-noclip-4)">
        <path d="M104.79,84a10.25,10.25,0,0,0-2.23-4.74c.85-9.33,3.88-17.21-4.18-24.12,7.77,11.47,1.56,13.13,1.19,27.6-1.53,1.14-.62,6.52,4,6.15C104.68,88.73,105.16,86.2,104.79,84Z" style="mix-blend-mode: multiply;fill: url(#linear-gradient-2)"/>
      </g>
    </mask>
  </defs>
  <title>looking-down</title>
  <path d="M1.08,127.73a102.92,102.92,0,0,1,205.83,0Z" style="fill: #d3f0f6"/>
  <ellipse cx="109.82" cy="176.24" rx="84.34" ry="17.76" style="opacity: 0.1"/>
  <g>
    <ellipse cx="103.58" cy="43.21" rx="8.74" ry="4.64" transform="matrix(0.15, -0.99, 0.99, 0.15, 45.08, 138.99)" style="fill: #dd6d36"/>
    <path d="M107.89,96.76,97.06,94.11c1.73,14.16,3.48,55.23,6,87.23h1.33C108.38,136.1,92.11,127.28,107.89,96.76Z" style="fill: #ffc78a"/>
    <path d="M103.51,137.13l-3.7-.18c.22,5.55,1.06,10.37,1.33,16.25l3.54,1.06A123.61,123.61,0,0,1,103.51,137.13Z" style="opacity: 0.15"/>
    <path d="M119.07,100.63l-11-2.66c2.4,14.26,6,54.92,10,87.16l1.18.16C120.93,131.75,104.73,131.37,119.07,100.63Z" style="fill: #ffc78a"/>
    <path d="M116.59,141.28l-3.71-.18c.48,5.59,1.55,10.45,2.09,16.36l3.59,1.07A126.89,126.89,0,0,1,116.59,141.28Z" style="opacity: 0.15"/>
    <path d="M117.14,38.18c-2-3-8.27-6-14.83-.34-18.32,19,9.13,14.23-3.66,39.7-6.89,16.14,3.42,30.65-23.93,60.06,18.07,3.31,37.84,19.83,51.73,11.9-9.4-22.37-1.2-48.74-14.43-69.91C105.92,58.21,119.69,57.61,117.14,38.18Z" style="fill: #f4ce2f"/>
    <path d="M75.46,137.75c-.31.34-.6.67-.92,1,18.07,3.31,37.84,19.83,51.73,11.9-.12-.3-.23-.6-.35-.89C112.25,156.9,93.11,141.31,75.46,137.75Z" style="fill: #dd6d36"/>
    <path d="M108.62,40.57c2.63-3.49,5.95-5.31,3.13-5.76s-7.5,1.41-11.87,5.59c-3.16,3-2,6.73-.13,7C104.37,48.08,106,44.06,108.62,40.57Z" style="fill: #dd6d36"/>
    <path d="M108.53,39.43c2.63-3.49,4.92-4.32,2.09-4.78s-5.62.76-10,4.93c-3.16,3-2.4,6.31-.55,6.58C104.7,46.85,105.89,42.92,108.53,39.43Z" style="fill: #ffc78a"/>
    <polygon points="111.08 75.12 99.49 75.41 97.39 80.76 111.96 79.69 111.08 75.12" style="fill: #dd6d36"/>
    <path d="M99.5,45.93l1.84-2.58-.83,2.86A1.89,1.89,0,0,1,99.5,45.93Z" style="fill: #782d00;opacity: 0.30000000000000004"/>
    <g style="mask: url(#mask-3)">
      <path d="M112,79.58c-6.12-21.37,7.65-22,5.1-41.41-.68-1-4.9,3.83-5.93,6.68-3.08,8.55-6.7,15.87-3.59,33.12,13.07,20.93-6.53,50.09,2.16,72.39,6.07,1.66,11.75,1.94,16.68-.88C117.06,127.13,125.26,100.76,112,79.58Z" style="opacity: 0.15"/>
    </g>
    <path d="M109.33,52.94c1-2.44,1.75-8.84.21-9.46s-4.83,4.8-5.8,7.24-.5,4.92,1,5.53S108.36,55.39,109.33,52.94Z" style="fill: #f4ce2f"/>
    <path d="M120.07,45.59c.91-4.07-.41-7.69-2.94-8.08s-5.32,2.59-6.23,6.67.41,7.69,2.94,8.08S119.16,49.66,120.07,45.59Z" style="fill: #dd6d36"/>
    <path d="M118.9,45.46c.48-3.09-.18-4.75-1.82-5s-3.53,1.19-4,4.29.59,4.47,2.23,4.73S118.43,48.56,118.9,45.46Z" style="fill: #782d00;opacity: 0.30000000000000004"/>
    <path d="M90.5,186.44c-.66,1.32,13.61-1.74,14.56-3.91S91.06,185.31,90.5,186.44Z" style="fill: #a04825"/>
    <path d="M90.46,185.7C89.8,187,104.07,184,105,181.79S91,184.57,90.46,185.7Z" style="fill: #f4ce2f"/>
    <path d="M118.77,191.82c.7,0,3.56-6,0-6.38C115.13,185.28,117.45,191.74,118.77,191.82Z" style="fill: #a04825"/>
    <path d="M118.77,190.91c.7,0,3.56-6,0-6.38C115.13,184.37,117.45,190.83,118.77,190.91Z" style="fill: #f4ce2f"/>
    <rect x="102.57" y="180.81" width="2.34" height="0.71" style="fill: #ceae2c"/>
    <rect x="117.46" y="184.18" width="2.34" height="0.71" style="fill: #ceae2c"/>
    <path d="M99.63,57.1l-3-4.7C95.77,60.39,96.92,71,99,85l1.95-.52C99.5,73,98.4,64.06,99.63,57.1Z" style="fill: #ffc78a"/>
    <path d="M98.29,55c-1,6.87.62,18.72,2,29.58l.65-.17C99.5,73,98.4,64.06,99.63,57.1Z" style="opacity: 0.15"/>
    <g style="mask: url(#mask-4)">
      <path d="M104.79,84a10.25,10.25,0,0,0-2.23-4.74c.85-9.33,3.88-17.21-4.18-24.12,7.77,11.47,1.56,13.13,1.19,27.6-1.53,1.14-.62,6.52,4,6.15C104.68,88.73,105.16,86.2,104.79,84Z" style="opacity: 0.15"/>
    </g>
    <path d="M103.2,87.65c1.08-.59,1.58-1.75.52-3.68s-3.33-4.59-4.4-4-.56,4.21.5,6.14S102.12,88.24,103.2,87.65Z" style="fill: #ffc78a"/>
    <path d="M107.15,90.27c1,.67,2.29.57,3.5-1.27s2.49-5.09,1.47-5.77-4,1.48-5.19,3.32S106.13,89.59,107.15,90.27Z" style="opacity: 0.15"/>
    <path d="M106.1,89c1,.67,2.29.57,3.5-1.27s2.49-5.09,1.47-5.77-4,1.48-5.19,3.32S105.08,88.37,106.1,89Z" style="fill: #ffc78a"/>
    <path d="M114.29,44.29c1.48-2.17,3.89-1.59,4.61,2-1.2,19.63,2.49,16.69-6.82,36.91l-2.18-.58C117.63,67.35,115.13,62.5,114.29,44.29Z" style="fill: #ffc78a"/>
    <path d="M111,82.94l1.07.28c9.31-20.22,5.62-17.28,6.82-36.91a5.84,5.84,0,0,0-.87-2.22C116.85,63.37,119.72,63.79,111,82.94Z" style="opacity: 0.15"/>
    <path d="M114,25.46,92.58,28.72l1.31,8.36c10.31-4.33,21.29-2.87,26.06-8.65Z" style="fill: #682e1e"/>
    <path d="M93.29,27.1c-3.25,2.08-2.45,7.3-6.06,4.71C89.62,35,91.3,37,93.9,37.07a3.79,3.79,0,0,0,1.18-4Z" style="fill: #823d25"/>
    <path d="M97.09,16.45,85.92,16c2.53,6.78,5.83,14.28,4.27,15.52l10.2-5.68Z" style="fill: #823d25"/>
    <path d="M95.93,6.74,88.85,7.83c-2.91.68-3.39,2.8-2.92,8.21l12.14,3.8Z" style="fill: #823d25"/>
    <polygon points="107.17 25.71 102.41 26.37 105.15 38.87 109.88 34.42 107.17 25.71" style="fill: #ffc78a"/>
    <path d="M111,16.84C108.56,9,101.34,4.31,94.92,6.35s-5.27,8.53-2.78,16.33,7.75,13.65,11.79,11.94C108.61,32.65,113.53,24.64,111,16.84Z" style="fill: #e58155"/>
    <path d="M110,16.56c-2.49-7.81-9.23-12.42-15.65-10.37s-6.22,9.09-3.73,16.9,8.7,13.08,12.74,11.37C108,32.48,112.49,24.37,110,16.56Z" style="fill: #ffc78a"/>
    <path d="M116.09,19l-11.29.65.82,4.63a5.87,5.87,0,0,0,6.23,4.82l8.09-.64C116.93,24.36,115.65,21.89,116.09,19Z" style="fill: #823d25"/>
    <path d="M112.16,9.26c-3.43-1.43-8.44.83-12.55,3.05l5.19,7.3c4,.9,8,1.11,11.29-.65A15.21,15.21,0,0,0,112.16,9.26Z" style="fill: #823d25"/>
    <path d="M88.85,7.83l10.76,4.48,12.55-3.05C103.18-1.24,92.33,3.75,88.85,7.83Z" style="fill: #823d25"/>
    <path d="M106.54,17.14l.19.27a6.72,6.72,0,0,1,1.14,3l.06.52S111.82,15.46,106.54,17.14Z" style="fill: #ffc78a"/>
    <path d="M110.75,29a5.58,5.58,0,0,0,1.93-4.9c1,1.33,1,2.91.83,4.79C111.92,29.95,111.69,29.4,110.75,29Z" style="fill: #682e1e"/>
    <path d="M99.16,20.94c-.64-1.71-1.52-2.94-2-2.74s-.28,1.75.36,3.46,1.52,2.94,2,2.74S99.8,22.65,99.16,20.94Z" style="fill: #5e3f3a"/>
    <path d="M93.65,23.39c-.64-1.71-1.52-2.94-2-2.74s-.29,1.75.35,3.46,1.52,2.94,2,2.74S94.29,25.1,93.65,23.39Z" style="fill: #5e3f3a"/>
    <path d="M97.69,29.38a.09.09,0,0,0,0-.17c-.52,0-.83-.51-1.06-1.05a1.59,1.59,0,0,1,0-1.47c.17-.41-.24-.48-.39,0-.27.83-.7,1.25-.43,1.89a1.4,1.4,0,0,0,1.7.91Z" style="fill: #e58155"/>
    <path d="M97.42,16.26a4.15,4.15,0,0,1,2.25.67,2.87,2.87,0,0,0-5.05.36A3.93,3.93,0,0,1,97.42,16.26Z" style="fill: #823d25"/>
    <path d="M90.77,19.1A4.15,4.15,0,0,1,92.86,18a2.87,2.87,0,0,0-3.41,3.74A3.93,3.93,0,0,1,90.77,19.1Z" style="fill: #823d25"/>
    <path d="M90.9,8.28s1.43,3.4,4.34,4.64c0,0-4.22-1.07-5.23-5Z" style="fill: #823d25"/>
    <path d="M97.43,32c1.21-1,4.72-3.15,6.81-2.84S101,34.07,97.43,32Z" style="fill: #682e1e"/>
    <path d="M98.86,31.31l.91.39,3.76-1.58,0-.74A11.37,11.37,0,0,0,98.86,31.31Z" style="fill: #efd8a3"/>
  </g>
</svg>
