<svg id="Layer_1" data-name="Layer 1" xmlns="http://www.w3.org/2000/svg" width="208" height="195" viewBox="0 0 208 195">
  <title>open-palm</title>
  <path d="M1.08,127.73a102.92,102.92,0,0,1,205.83,0Z" style="fill: #d3f0f6"/>
  <ellipse cx="109.82" cy="176.24" rx="84.34" ry="17.76" style="opacity: 0.1"/>
  <g>
    <path id="_Path_" data-name="&lt;Path&gt;" d="M66.28,57.41c-1.29-2.23-2.92-4.39,0-6.2,2.79-1.71,4.54,2.14,4.92,6,.63,6.24,6.59,8,4.37,8.54C72.87,63.22,67,59,66.28,57.41Z" style="fill: #ffb38d"/>
    <path id="_Path_2" data-name="&lt;Path&gt;" d="M69.52,54.31c.32-1.52,1-2.65,1.61-2.54s.77,1.45.45,3-.18,3.1-.75,3S69.21,55.83,69.52,54.31Z" style="fill: #ffb38d"/>
    <path id="_Path_3" data-name="&lt;Path&gt;" d="M69.81,50.34c-.39-1.41-.13-2,.28-2s.8.48,1.19,1.89.44,3.36,0,3.4S70.2,51.76,69.81,50.34Z" style="fill: #ffb38d"/>
    <path id="_Path_4" data-name="&lt;Path&gt;" d="M63.32,50c-1.12-.91-1.88-1.32-2-.86s.79,1.12,1.78,2.43,2.12,2.12,2.27,1.65S64.36,50.85,63.32,50Z" style="fill: #ffb38d"/>
    <path id="_Path_5" data-name="&lt;Path&gt;" d="M60.22,48.81c-.94-.82-1.15-1.3-1-1.58s.75-.28,1.69.54,1.74,1.88,1.56,2.17S61.15,49.63,60.22,48.81Z" style="fill: #ffb38d"/>
    <path id="_Path_6" data-name="&lt;Path&gt;" d="M63.46,52.74c-1-.57-1.69-.79-1.74-.4s.79.79,1.77,1.69,2,1.4,2,1S64.41,53.27,63.46,52.74Z" style="fill: #ffb38d"/>
    <path id="_Path_7" data-name="&lt;Path&gt;" d="M60.8,52.22c-.87-.53-1.11-.88-1-1.13s.56-.33,1.43.2,1.66,1.26,1.55,1.51S61.67,52.74,60.8,52.22Z" style="fill: #ffb38d"/>
    <path id="_Path_8" data-name="&lt;Path&gt;" d="M65.1,48.89c-1-1.08-1.71-1.61-1.9-1.16s.67,1.25,1.51,2.71,1.87,2.45,2.06,2S66,49.89,65.1,48.89Z" style="fill: #ffb38d"/>
    <path id="_Path_9" data-name="&lt;Path&gt;" d="M62.17,47.22c-.84-1-1-1.48-.8-1.74s.77-.17,1.6.8,1.52,2.15,1.32,2.41S63,48.19,62.17,47.22Z" style="fill: #ffb38d"/>
    <path id="_Path_10" data-name="&lt;Path&gt;" d="M67.25,48.43c-1-1.08-1.71-1.61-1.9-1.16S66,48.51,66.86,50s1.87,2.45,2.06,2S68.19,49.43,67.25,48.43Z" style="fill: #ffb38d"/>
    <path id="_Path_11" data-name="&lt;Path&gt;" d="M64.33,46.76c-.84-1-1-1.48-.8-1.74s.77-.17,1.6.8,1.52,2.15,1.32,2.41S65.17,47.73,64.33,46.76Z" style="fill: #ffb38d"/>
    <path id="_Path_12" data-name="&lt;Path&gt;" d="M96,50.42,97.31,40.1c-11.17,3.35-7.78,46-23.79,19.61L71.82,63.8C91.16,92.93,92.25,56.06,96,50.42Z" style="fill: #50baef"/>
    <path id="_Path_13" data-name="&lt;Path&gt;" d="M96,50.42,97.31,40.1c-11.17,3.35-7.78,46-23.79,19.61L71.82,63.8C91.16,92.93,92.25,56.06,96,50.42Z" style="opacity: 0.1"/>
    <path id="_Path_14" data-name="&lt;Path&gt;" d="M149.46,58.12c1.29-2.23,2.92-4.39,0-6.2-2.79-1.71-4.54,2.14-4.92,6-.63,6.24-6.59,8-4.37,8.54C142.86,63.93,148.69,59.74,149.46,58.12Z" style="fill: #ffb38d"/>
    <path id="_Path_15" data-name="&lt;Path&gt;" d="M146.21,55c-.32-1.52-1-2.65-1.61-2.54s-.77,1.45-.45,3,.18,3.1.75,3S146.53,56.55,146.21,55Z" style="fill: #ffb38d"/>
    <path id="_Path_16" data-name="&lt;Path&gt;" d="M145.92,51.05c.39-1.41.13-2-.28-2s-.8.48-1.19,1.89-.44,3.36,0,3.4S145.53,52.47,145.92,51.05Z" style="fill: #ffb38d"/>
    <path id="_Path_17" data-name="&lt;Path&gt;" d="M152.41,50.72c1.12-.91,1.88-1.32,2-.86s-.79,1.12-1.78,2.43-2.12,2.12-2.27,1.65S151.37,51.56,152.41,50.72Z" style="fill: #ffb38d"/>
    <path id="_Path_18" data-name="&lt;Path&gt;" d="M155.52,49.52c.94-.82,1.15-1.3,1-1.58s-.75-.28-1.69.54-1.74,1.88-1.56,2.17S154.58,50.34,155.52,49.52Z" style="fill: #ffb38d"/>
    <path id="_Path_19" data-name="&lt;Path&gt;" d="M152,53.58c1-.73,1.69-1,1.79-.64s-.74.93-1.67,2-1.95,1.72-2,1.31S151,54.25,152,53.58Z" style="fill: #ffb38d"/>
    <path id="_Path_20" data-name="&lt;Path&gt;" d="M154.73,52.7c.85-.66,1.07-1.06.92-1.32s-.64-.28-1.49.38-1.61,1.54-1.46,1.79S153.88,53.37,154.73,52.7Z" style="fill: #ffb38d"/>
    <path id="_Path_21" data-name="&lt;Path&gt;" d="M150.64,49.6c1-1.08,1.71-1.61,1.9-1.16s-.67,1.25-1.51,2.71-1.87,2.45-2.06,2S149.7,50.6,150.64,49.6Z" style="fill: #ffb38d"/>
    <path id="_Path_22" data-name="&lt;Path&gt;" d="M153.56,47.93c.84-1,1-1.48.8-1.74s-.77-.17-1.6.8-1.52,2.15-1.32,2.41S152.72,48.9,153.56,47.93Z" style="fill: #ffb38d"/>
    <path id="_Path_23" data-name="&lt;Path&gt;" d="M148.48,49.14c1-1.08,1.71-1.61,1.9-1.16s-.67,1.25-1.51,2.71-1.87,2.45-2.06,2S147.54,50.14,148.48,49.14Z" style="fill: #ffb38d"/>
    <path id="_Path_24" data-name="&lt;Path&gt;" d="M151.4,47.47c.84-1,1-1.48.8-1.74s-.77-.17-1.6.8-1.52,2.15-1.32,2.41S150.57,48.44,151.4,47.47Z" style="fill: #ffb38d"/>
    <path id="_Path_25" data-name="&lt;Path&gt;" d="M116.81,49l1.61-8.19c11.17,3.35,7.78,46,23.79,19.61l1.71,4.09C124.58,93.64,120.56,54.64,116.81,49Z" style="fill: #50baef"/>
    <polygon id="_Path_26" data-name="&lt;Path&gt;" points="117.81 24.41 96.01 21.5 97.98 31.71 117.55 31.02 117.81 24.41" style="fill: #773e18"/>
    <path id="_Path_27" data-name="&lt;Path&gt;" d="M96.74,49.94l.55-9.81c-3.89,1-6.52,5.93-7,12.17l4.79,2.85C95.65,53.14,96.19,51.51,96.74,49.94Z" style="fill: #50baef"/>
    <path id="_Path_28" data-name="&lt;Path&gt;" d="M96.74,49.94l.55-9.81c-3.89,1-6.52,5.93-7,12.17l4.79,2.85C95.65,53.14,96.19,51.51,96.74,49.94Z" style="opacity: 0.1"/>
    <path id="_Path_29" data-name="&lt;Path&gt;" d="M98.47,172.05c4.22-3.73,8.38-4.48,6.3-10-.75-2-4.79-.86-9,3.73-1.76,1.9-5.91,5.33-7.23,7.35C87.52,174.68,94.25,175.78,98.47,172.05Z" style="fill: #76c1e2"/>
    <path id="_Path_30" data-name="&lt;Path&gt;" d="M98.88,164.48c-.19-1.16,1-2.44,2.72-3.05s3-.24,3.17.92-.78,2.52-2.47,3.13S99.08,165.64,98.88,164.48Z" style="fill: #8d3c00;opacity: 0.4"/>
    <polygon id="_Path_31" data-name="&lt;Path&gt;" points="97.39 165.16 99.41 168.23 98.45 169.25 96.42 166.18 97.39 165.16" style="fill: #8d3c00;opacity: 0.4"/>
    <path id="_Path_32" data-name="&lt;Path&gt;" d="M111,186.24c4.22-3.73,8.38-4.48,6.3-10-.75-2-4.79-.86-9,3.73-1.76,1.9-5.91,5.33-7.23,7.35C100,188.87,106.78,190,111,186.24Z" style="fill: #76c1e2"/>
    <path id="_Path_33" data-name="&lt;Path&gt;" d="M111.41,178.67c-.19-1.16,1-2.44,2.72-3.05s3-.24,3.17.92-.78,2.52-2.47,3.13S111.61,179.83,111.41,178.67Z" style="fill: #8d3c00;opacity: 0.4"/>
    <polygon id="_Path_34" data-name="&lt;Path&gt;" points="109.92 179.35 111.94 182.41 110.98 183.43 108.95 180.37 109.92 179.35" style="fill: #8d3c00;opacity: 0.4"/>
    <path id="_Path_35" data-name="&lt;Path&gt;" d="M111.06,152.6l2.26-.22a1.16,1.16,0,0,1,1.26,1.09L115.79,177a1.16,1.16,0,0,1-1.07,1.21l-1.25.09a1.16,1.16,0,0,1-1.23-1L110,153.86A1.16,1.16,0,0,1,111.06,152.6Z" style="fill: #ffb380"/>
    <polygon id="_Path_36" data-name="&lt;Path&gt;" points="112.39 162.01 113.93 178.23 112.35 178.35 109.91 152.71 114.53 152.27 115.01 161.76 112.39 162.01" style="fill: #ff5d08;opacity: 0.30000000000000004"/>
    <path id="_Path_37" data-name="&lt;Path&gt;" d="M95.77,141.54l3.34-.61,3.8,21.69c-.6,2-1.38,2.22-3,1.76Z" style="fill: #ffb380"/>
    <polygon id="_Path_38" data-name="&lt;Path&gt;" points="99.11 140.93 101.18 152.81 99.19 153.19 101.18 164.16 99.92 164.38 95.77 141.54 99.11 140.93" style="fill: #ff5d08;opacity: 0.30000000000000004"/>
    <path id="_Path_39" data-name="&lt;Path&gt;" d="M100.48,101.07,91.88,90C86.28,99.84,93,129,96.08,149.6a1.82,1.82,0,0,0,1.55,1.88l2.63-.27a1.42,1.42,0,0,0,1.15-.5,1.94,1.94,0,0,0,.46-1.33C97.87,126.95,98.48,118.72,100.48,101.07Z" style="fill: #ff6339"/>
    <path id="_Path_40" data-name="&lt;Path&gt;" d="M100,149.57c-4-20-11.91-48.06-7.42-58.72L91.88,90C86.28,99.84,93,129,96.08,149.6a1.82,1.82,0,0,0,1.55,1.88l2.63-.27a1.37,1.37,0,0,0,.58-.1A2,2,0,0,1,100,149.57Z" style="opacity: 0.1"/>
    <polygon id="_Path_41" data-name="&lt;Path&gt;" points="121.95 47.34 113.95 41.88 112.57 43.9 120.58 49.36 121.95 47.34" style="fill: #c6891e"/>
    <path id="_Path_42" data-name="&lt;Path&gt;" d="M107.7,102.39l10.18-12c6.86,10.6-5.41,33-1.24,66a2.05,2.05,0,0,1-1.91,2.1l-3.31.23a2.05,2.05,0,0,1-2.19-2A446,446,0,0,1,107.7,102.39Z" style="fill: #ff6339"/>
    <path id="_Path_43" data-name="&lt;Path&gt;" d="M113.73,158a446.07,446.07,0,0,1-6-54.06v-1.54a446,446,0,0,0,1.52,54.37,2.05,2.05,0,0,0,2.19,2l2.49-.17A2,2,0,0,1,113.73,158Z" style="opacity: 0.1"/>
    <path id="_Path_44" data-name="&lt;Path&gt;" d="M90.74,89.81l28.13,1.5c-.18,4.89-1.47,11.79-4.44,14-8.54-1.91-11.91-2.5-20.57-1.67Z" style="fill: #ff6339"/>
    <path id="_Path_45" data-name="&lt;Path&gt;" d="M94,48.63a8.28,8.28,0,0,1,1.68-7.34C99.44,37,114.09,35.65,117,38.53a5.31,5.31,0,0,1,1.6,3.95c-.13,4.27-2.1,6.66-2.69,10.25-4.4,26.72,3.82,34.26,3.51,41.22l-29.25.36C89,87.19,99.18,72.07,94,48.63Z" style="fill: #50baef"/>
    <polygon id="_Path_46" data-name="&lt;Path&gt;" points="108.45 30.34 104.59 30.34 104.33 37.93 108.88 38.49 108.45 30.34" style="fill: #ed9558"/>
    <path id="_Path_47" data-name="&lt;Path&gt;" d="M99.6,39.66c-.18-1.5,3-1.94,6.43-2.34s6.93-.92,7.11.59-4.81,5.73-8.21,6.14S99.78,41.16,99.6,39.66Z" style="fill: #c2e9e7;opacity: 0.7000000000000001"/>
    <path id="_Path_48" data-name="&lt;Path&gt;" d="M100.36,39.57c-.14-1.2,2.78-1.88,5.8-2.24s6.14-.8,6.29.4-2.76,3.6-5.78,4S100.5,40.77,100.36,39.57Z" style="fill: #ffb380"/>
    <path id="_Path_49" data-name="&lt;Path&gt;" d="M116.17,47.34,115,37.56c5,.9,8.61,5.69,9.46,11.91l-6,3C117.72,50.5,116.95,48.89,116.17,47.34Z" style="fill: #50baef"/>
    <ellipse id="_Path_50" data-name="&lt;Path&gt;" cx="106.39" cy="19.01" rx="9.44" ry="13.74" style="fill: #e87c5b"/>
    <path id="_Path_51" data-name="&lt;Path&gt;" d="M114.18,18.67c0-7.39-3.79-13.38-8.47-13.38s-8.47,6-8.47,13.38,3.54,13.64,8.21,13.64S114.18,26.06,114.18,18.67Z" style="fill: #ffb380"/>
    <path id="_Path_52" data-name="&lt;Path&gt;" d="M102.28,21.69c1.8-1.34,1.17-2.32,1.71-2.17s.64,1.7.4,2.89S101.29,22.42,102.28,21.69Z" style="fill: #e87c5b"/>
    <ellipse id="_Path_53" data-name="&lt;Path&gt;" cx="107.64" cy="16.26" rx="2.66" ry="0.99" transform="translate(85.92 122.93) rotate(-87.08)" style="fill: #4c3322"/>
    <ellipse id="_Path_54" data-name="&lt;Path&gt;" cx="100.91" cy="16.77" rx="2.66" ry="0.88" transform="translate(78.48 116.58) rotate(-86.77)" style="fill: #4c3322"/>
    <path id="_Path_55" data-name="&lt;Path&gt;" d="M100.43,25.2c1.44-.1,3.23-.06,7.16-.12C106,29.19,104,32.49,100.43,25.2Z" style="fill: #60381d"/>
    <path id="_Path_56" data-name="&lt;Path&gt;" d="M108.64,12.26a3,3,0,0,0-2.81.64,2.73,2.73,0,0,1,2.87-1.3,2.45,2.45,0,0,1,1.53,2A2.85,2.85,0,0,0,108.64,12.26Z" style="fill: #a04f18"/>
    <path id="_Path_57" data-name="&lt;Path&gt;" d="M100.68,12.33a3,3,0,0,0-1.79,2.26,2.73,2.73,0,0,1,1.43-2.81,2.45,2.45,0,0,1,2.43.58A2.84,2.84,0,0,0,100.68,12.33Z" style="fill: #a04f18"/>
    <polygon id="_Path_58" data-name="&lt;Path&gt;" points="107.25 25.42 106.62 26.51 102.53 26.84 101.63 25.49 107.25 25.42" style="fill: #ffcfae"/>
    <ellipse id="_Path_59" data-name="&lt;Path&gt;" cx="104.43" cy="30.65" rx="0.95" ry="0.33" style="fill: #ff5d08;opacity: 0.30000000000000004"/>
    <path id="_Path_60" data-name="&lt;Path&gt;" d="M104.61,5.31c8.69.06,11.4,11.53,6,28l7-2.32C133.43-1.85,106.27,1.58,104.61,5.31Z" style="fill: #a04f18"/>
    <path id="_Path_61" data-name="&lt;Path&gt;" d="M107.34,4.5c-9.44,2.4-13,10.9-7.38,27.64l-2-.26C91.63,16.94,92.14.81,107.34,4.5Z" style="fill: #a04f18"/>
    <path id="_Path_62" data-name="&lt;Path&gt;" d="M116.41,16.87c0,1.06-.36,1.93-.81,1.93s.12-1,.12-1.87-.57-2-.12-2S116.41,15.81,116.41,16.87Z" style="fill: #ffb380"/>
    <polygon id="_Path_63" data-name="&lt;Path&gt;" points="114.76 62.15 112.82 58.8 111.15 62.02 108.58 59.58 106.13 63.05 104.07 59.96 102.14 63.57 98.66 59.32 97.11 62.8 95.44 59.19 95.57 61.12 97.37 64.34 99.05 60.99 102.65 64.86 104.07 61.77 106.39 64.21 108.83 61.12 111.41 63.57 112.95 61.51 115.01 63.95 114.76 62.15" style="fill: #c2e9e7;opacity: 0.7000000000000001"/>
    <path id="_Path_64" data-name="&lt;Path&gt;" d="M95.2,56.08c0-.46-.09-.92-.15-1.39,7.23,4.45,17.55,1,20.61-.16-.05.36-.11.72-.16,1.08C104.49,59.88,98.15,57.86,95.2,56.08Z" style="fill: #c2e9e7;opacity: 0.7000000000000001"/>
    <path id="_Path_65" data-name="&lt;Path&gt;" d="M94,48.63a8.28,8.28,0,0,1,1.68-7.34c3-3.39,12.89-5,18.28-4-9.4,3.22-27,20.22-1.76,16.87C113.29,73.68,97.59,87,95.47,94.24l-5.26.06C89,87.19,99.18,72.07,94,48.63Z" style="opacity: 0.1"/>
  </g>
</svg>
