<svg xmlns="http://www.w3.org/2000/svg" width="208" height="195" viewBox="0 0 208 195">
  <title>rubbing-hands</title>
  <g style="isolation: isolate">
    <g id="Layer_1" data-name="Layer 1">
      <path d="M1.08,127.73a102.92,102.92,0,0,1,205.83,0Z" style="fill: #d3f0f6"/>
      <ellipse cx="109.82" cy="176.24" rx="84.34" ry="17.76" style="opacity: 0.1"/>
      <g>
        <path d="M156.93,49.14a8.32,8.32,0,0,0-1.6,1.32,10.64,10.64,0,0,0-1.22.64,7.11,7.11,0,0,0-1.51,1.29,3,3,0,0,0-.08-.71,8.81,8.81,0,0,0,2-2.09c.82-1.14,1.6-1.91,2-2.47a9.29,9.29,0,0,0,1.6-1.2c1.18-1.09,1.44-1.71,1.2-2.07s-1-.34-2.16.76a10.24,10.24,0,0,0-1.66,1.94,13.09,13.09,0,0,0-1.34,1,9.9,9.9,0,0,0-2.18,3,4.29,4.29,0,0,0-.7-.72,11.47,11.47,0,0,0,1.11-1.69c.69-1.27,1.38-2.16,1.7-2.79a9.93,9.93,0,0,0,1.45-1.45c1-1.28,1.24-1.94,1-2.27s-1-.19-2,1.08a11.15,11.15,0,0,0-1.43,2.2,14,14,0,0,0-1.21,1.24,10.52,10.52,0,0,0-1.68,2.93,3.29,3.29,0,0,0-1.23-.38,11.83,11.83,0,0,0,.67-1.1c.69-1.27,1.38-2.16,1.7-2.79a9.93,9.93,0,0,0,1.45-1.45c1-1.28,1.24-1.94,1-2.27s-1-.19-2,1.08a11.15,11.15,0,0,0-1.43,2.2,14,14,0,0,0-1.21,1.24,10.76,10.76,0,0,0-1.92,3.65,5.64,5.64,0,0,0-1.52,2,4.19,4.19,0,0,0-.5-.75c.27-.76.53-1.63.72-2.39.45-1.84.09-2.56-.43-2.59s-1,.65-1.46,2.48a12.21,12.21,0,0,0-.33,2.73,6.47,6.47,0,0,0,.1,3.11c.29,1.22.35,2.47.53,3.2-.64,8-8.18,10.46-5.32,11.06,3.43-3.29,10.79-8.9,11.72-11a29.73,29.73,0,0,0,1.57-3.06,7.19,7.19,0,0,0,1.91-1.39c.81-.8,1.55-1.3,1.94-1.7a7.55,7.55,0,0,0,1.45-.73c1.1-.71,1.4-1.17,1.25-1.49S158,48.42,156.93,49.14Z" style="fill: #bf9e7d"/>
        <path d="M156.93,49.14a8.32,8.32,0,0,0-1.6,1.32,10.64,10.64,0,0,0-1.22.64,7.11,7.11,0,0,0-1.51,1.29,3,3,0,0,0-.08-.71,8.81,8.81,0,0,0,2-2.09c.82-1.14,1.6-1.91,2-2.47a9.29,9.29,0,0,0,1.6-1.2c1.18-1.09,1.44-1.71,1.2-2.07s-1-.34-2.16.76a10.24,10.24,0,0,0-1.66,1.94,13.09,13.09,0,0,0-1.34,1,9.9,9.9,0,0,0-2.18,3,4.29,4.29,0,0,0-.7-.72,11.47,11.47,0,0,0,1.11-1.69c.69-1.27,1.38-2.16,1.7-2.79a9.93,9.93,0,0,0,1.45-1.45c1-1.28,1.24-1.94,1-2.27s-1-.19-2,1.08a11.15,11.15,0,0,0-1.43,2.2,14,14,0,0,0-1.21,1.24,10.52,10.52,0,0,0-1.68,2.93,3.29,3.29,0,0,0-1.23-.38,11.83,11.83,0,0,0,.67-1.1c.69-1.27,1.38-2.16,1.7-2.79a9.93,9.93,0,0,0,1.45-1.45c1-1.28,1.24-1.94,1-2.27s-1-.19-2,1.08a11.15,11.15,0,0,0-1.43,2.2,14,14,0,0,0-1.21,1.24,10.76,10.76,0,0,0-1.92,3.65,5.64,5.64,0,0,0-1.52,2,4.19,4.19,0,0,0-.5-.75c.27-.76.53-1.63.72-2.39.45-1.84.09-2.56-.43-2.59s-1,.65-1.46,2.48a12.21,12.21,0,0,0-.33,2.73,6.47,6.47,0,0,0,.1,3.11c.29,1.22.35,2.47.53,3.2-.64,8-8.18,10.46-5.32,11.06,3.43-3.29,10.79-8.9,11.72-11a29.73,29.73,0,0,0,1.57-3.06,7.19,7.19,0,0,0,1.91-1.39c.81-.8,1.55-1.3,1.94-1.7a7.55,7.55,0,0,0,1.45-.73c1.1-.71,1.4-1.17,1.25-1.49S158,48.42,156.93,49.14Z" style="opacity: 0.1"/>
        <path id="_Path_" data-name="&lt;Path&gt;" d="M112.11,49.25,110.05,36c14.51,3.93,11.65,59,31.34,24.43l2.35,5.21C119.84,103.85,117.14,56.39,112.11,49.25Z" style="fill: #50baef"/>
        <path id="_Path_2" data-name="&lt;Path&gt;" d="M112.11,49.25,110.05,36c14.51,3.93,11.65,59,31.34,24.43l2.35,5.21C119.84,103.85,117.14,56.39,112.11,49.25Z" style="fill: #7db7e2"/>
        <path id="_Path_3" data-name="&lt;Path&gt;" d="M112.11,49.25,110.05,36c14.51,3.93,11.65,59,31.34,24.43l2.35,5.21C119.84,103.85,117.14,56.39,112.11,49.25Z" style="opacity: 0.1"/>
        <path id="_Path_4" data-name="&lt;Path&gt;" d="M101.06,24.71c-.84-3.41-4.81-10.36-7.31-9.75s-3,7.95-2.18,11.36,6.84,7,9.34,6.34S101.9,28.12,101.06,24.71Z" style="fill: #484c54"/>
        <path id="_Path_5" data-name="&lt;Path&gt;" d="M102.49,21.81c2.68-4.56,7.37-15.65,4-17.61S95.44,5.28,91.58,12.75c-2.43,4.7-.54,15.12,2.8,17.08S99.81,26.38,102.49,21.81Z" style="fill: #484c54"/>
        <path id="_Path_6" data-name="&lt;Path&gt;" d="M124.07,181.39c1-1.81,2.4-2,6.27-.37,3.67,1.58,8.72,3.2,8.48,4.56s-4.8,1-8.92.33S122.81,183.63,124.07,181.39Z" style="fill: #477db2"/>
        <path id="_Path_7" data-name="&lt;Path&gt;" d="M124,180.82c1-1.81,2.4-2,6.27-.37,3.67,1.58,8.72,3.2,8.48,4.56s-4.8,1-8.92.33S122.74,183.06,124,180.82Z" style="fill: #7db7e2"/>
        <polygon id="_Path_8" data-name="&lt;Path&gt;" points="128.15 179.47 126.66 181.97 128.36 182.98 129.85 180.48 128.15 179.47" style="fill: #f5f0ff"/>
        <path id="_Path_9" data-name="&lt;Path&gt;" d="M87.87,178.29c-2.1-2.11-4.68,0-6.52,1.78-2.17,2.09-6.54,5.51-5.73,6.81,2,2.24,7.94-1.63,10.84-3.44C88.75,182,90.27,180.71,87.87,178.29Z" style="fill: #477db2"/>
        <path id="_Path_10" data-name="&lt;Path&gt;" d="M87.8,177.72c-2.1-2.11-4.68,0-6.52,1.78-2.17,2.09-6.54,5.51-5.73,6.81,2,2.24,7.94-1.63,10.84-3.44C88.68,181.45,90.21,180.14,87.8,177.72Z" style="fill: #7db7e2"/>
        <rect id="_Path_11" data-name="&lt;Path&gt;" x="81.83" y="178.31" width="2.82" height="1.98" transform="translate(-98.35 101.19) rotate(-41.82)" style="fill: #f5f0ff"/>
        <path id="_Path_12" data-name="&lt;Path&gt;" d="M87.19,171.32l-3.06.43-.24,5.5c.83.78,1.46.82,2.67.11Z" style="fill: #ffc48f"/>
        <path id="_Path_13" data-name="&lt;Path&gt;" d="M126.88,174.91l-2.66.26,1,5.13c.84.18,1.51.62,2.19-.47Z" style="fill: #ffc48f"/>
        <path id="_Path_14" data-name="&lt;Path&gt;" d="M100.4,97.52,87.49,87.63c-2.08,42.9-2,63.63-4.32,88.7,1.66,1.43,2.9,1.42,5,0C92.08,144.57,97.39,128.21,100.4,97.52Z" style="fill: #484c54"/>
        <path id="_Path_15" data-name="&lt;Path&gt;" d="M119.79,88.77l-11.91,9.55c6.06,26.35,9.08,43.78,15.34,80.37,2.11.94,3.42,1.11,5.12-.82C125.82,141.3,122.48,110.06,119.79,88.77Z" style="fill: #484c54"/>
        <path id="_Path_16" data-name="&lt;Path&gt;" d="M120,90.3l-31.4.18,8.5,18.78c5.91-4.34,8.7-3.52,18.62-3.35Z" style="fill: #484c54"/>
        <path id="_Path_17" data-name="&lt;Path&gt;" d="M119.79,88.77l-.33.26.66-2.41-32.46.27S87.46,96,87,100.06C98.29,102.38,119.86,96.56,119.79,88.77Z" style="opacity: 0.1"/>
        <path id="_Path_18" data-name="&lt;Path&gt;" d="M119.24,40.37C108.45,32.56,93.66,37,87.61,43.24a4.62,4.62,0,0,0-1.13,2.58c-5.17,15.26,5.81,23.08-.94,42,.5,10.8,33.38,7.7,35.68-1.3C120.6,67.58,128.47,49.43,119.24,40.37Z" style="fill: #7db7e2"/>
        <path id="_Path_19" data-name="&lt;Path&gt;" d="M122.5,68c.75-5.94,1.47-11.47,1.19-16.26-7,4.06-18.85,4.63-38.63,2.82,0,5.79,1.9,10.88,2.54,16.91C106.56,72.51,117,71.83,122.5,68Z" style="fill: #ffeea9;opacity: 0.4"/>
        <path id="_Path_20" data-name="&lt;Path&gt;" d="M90.15,85.92c.4-1.12,8.26-43.42-2.54-42.68a4.62,4.62,0,0,0-1.13,2.58c-5.17,15.26,5.81,23.08-.94,42,.43,9.33,25,8.29,33.17,2C108.24,92.71,90.49,93.16,90.15,85.92Z" style="opacity: 0.1"/>
        <ellipse id="_Path_21" data-name="&lt;Path&gt;" cx="104.57" cy="39.6" rx="3.81" ry="8.19" transform="matrix(0.04, -1, 1, 0.04, 60.54, 142.38)" style="fill: #38718e"/>
        <path id="_Path_22" data-name="&lt;Path&gt;" d="M107.57,28.89l-6.92-.3-.42,9.83c.77,2.29,6,2,6.92.3Z" style="fill: #bf9e7d"/>
        <path id="_Path_23" data-name="&lt;Path&gt;" d="M105,50.2c7.83-.29,14.28-3.52,16-7.62a13.23,13.23,0,0,0-1.79-2.21,21.55,21.55,0,0,0-10.88-4.05,8.2,8.2,0,0,1-1.09-.27l.19-4.47c-.86-.05-2-.08-3,0a25.07,25.07,0,0,0-3.94.38l-.18,4.26a11.75,11.75,0,0,0-3,1.38,24.46,24.46,0,0,0-9.23,5.2C89.4,47.27,96.54,50.51,105,50.2Z" style="opacity: 0.1"/>
        <path id="_Path_24" data-name="&lt;Path&gt;" d="M118.23,20c.35-8.1-5.1-14.92-12.17-15.22S93,10.77,92.64,18.87s5.1,14.92,12.17,15.22S119.78,36.62,118.23,20Z" style="fill: #bf9e7d"/>
        <path id="_Path_25" data-name="&lt;Path&gt;" d="M118.35,17.15c.28-6.55-4-12-9.65-12.29S98.31,9.73,98,16.28s6.64,9.9,16,7.33C119.6,25.4,118.06,23.78,118.35,17.15Z" style="fill: #bf9e7d"/>
        <path id="_Path_26" data-name="&lt;Path&gt;" d="M100,17.21c.18-4.33,1.19-10.13-1.54-10.24s-8.83,1.51-8.6,13.77c-.18,4.33,3.09,9.27,5.82,9.39C94.67,26.41,99.78,21.53,100,17.21Z" style="fill: #484c54"/>
        <ellipse id="_Path_27" data-name="&lt;Path&gt;" cx="96.29" cy="20.09" rx="2.61" ry="3.18" transform="translate(-1.7 11.52) rotate(-6.79)" style="fill: #bf9e7d"/>
        <ellipse id="_Path_28" data-name="&lt;Path&gt;" cx="96.57" cy="20.1" rx="1.85" ry="2.25" transform="translate(-1.7 11.56) rotate(-6.79)" style="opacity: 0.1"/>
        <polygon id="_Path_29" data-name="&lt;Path&gt;" points="104.57 9.91 97.45 12.2 98.33 22.42 101.19 22.77 104.57 9.91" style="fill: #484c54"/>
        <path id="_Path_30" data-name="&lt;Path&gt;" d="M115.71,7.28c.06-1.36-5-3.75-8.74-3.91s-6.25.77-6.31,2.13,3.53,1.71,7.27,1.87S115.65,8.64,115.71,7.28Z" style="fill: #484c54"/>
        <path id="_Path_31" data-name="&lt;Path&gt;" d="M104.84,10.21c.1-2.42-2.18-4.48-4.75-4.59A4.53,4.53,0,0,0,95.24,9.8c-.1,2.42,3.24,12.72,5.81,12.83A25.63,25.63,0,0,0,104.84,10.21Z" style="fill: #484c54"/>
        <path id="_Path_32" data-name="&lt;Path&gt;" d="M114.39,7.73a1.86,1.86,0,0,0,2.84-1s-1.7,1.67-2.25.08C114.59,5.72,114.39,7.73,114.39,7.73Z" style="fill: #484c54"/>
        <path id="_Path_33" data-name="&lt;Path&gt;" d="M114.43,7.63a1.86,1.86,0,0,0,2.17-2.1s-.86,2.22-2,1C113.78,5.71,114.43,7.63,114.43,7.63Z" style="fill: #484c54"/>
        <path id="_Path_34" data-name="&lt;Path&gt;" d="M110.95,6.49s-2.2-.26-2.64,2.54c0,0,1-1.82,3.87-1.25Z" style="fill: #484c54"/>
        <path id="_Path_35" data-name="&lt;Path&gt;" d="M98.89,19s-1-2-3.57-.83c0,0,2.05-.18,3.15,2.57Z" style="fill: #484c54"/>
        <path id="_Path_36" data-name="&lt;Path&gt;" d="M93.94,28.23s1.33,1.78-1,3.58c0,0,1.18-1.76-.78-4Z" style="fill: #484c54"/>
        <path id="_Path_37" data-name="&lt;Path&gt;" d="M111.29,4.69c-5.08-3.47-13.56-1.16-15.54,3,.5,1.06,2.63.35,5.2-.87S111.8,5.74,111.29,4.69Z" style="fill: #484c54"/>
        <ellipse id="_Path_38" data-name="&lt;Path&gt;" cx="108.7" cy="17.44" rx="2.68" ry="1.06" transform="translate(86.63 125.3) rotate(-87.55)" style="fill: #544030"/>
        <ellipse id="_Path_39" data-name="&lt;Path&gt;" cx="116.43" cy="17.63" rx="2.68" ry="0.89" transform="translate(93.85 133.2) rotate(-87.55)" style="fill: #544030"/>
        <path id="_Path_40" data-name="&lt;Path&gt;" d="M110.47,11.91l-3,.3a1.42,1.42,0,0,0-1.27,1.56l.06.55,4.43-.45Z" style="fill: #484c54"/>
        <path id="_Path_41" data-name="&lt;Path&gt;" d="M118.78,13.43a.91.91,0,0,0-.74-1.06l-2.59-.46-.34,1.95,3.49.61Z" style="fill: #484c54"/>
        <path id="_Path_42" data-name="&lt;Path&gt;" d="M118.33,20.54s0,5.66-4.36,4.34c0,0-7.5,2.79-12.84-5.78,0,0-7.86,7.91-5.48,11A12.38,12.38,0,0,0,107.26,35C112.58,34.43,124.32,39.88,118.33,20.54Z" style="fill: #484c54"/>
        <path id="_Path_43" data-name="&lt;Path&gt;" d="M106.3,25.58a4.77,4.77,0,0,0-1.69,2,2.85,2.85,0,0,0,2.25,4c3.46.42,8.66-.32,9.39-2.79C117.5,24.59,111.73,28.74,106.3,25.58Z" style="opacity: 0.30000000000000004"/>
        <path id="_Path_44" data-name="&lt;Path&gt;" d="M114.62,27.26a17.1,17.1,0,0,1-8.17-.63L106,28a13.23,13.23,0,0,0,7.88.81Z" style="fill: #f7eef2"/>
        <path id="_Path_45" data-name="&lt;Path&gt;" d="M103.36,11.69c.07-1.75-2.08-3.24-4.8-3.35s-6,1.72-6.08,3.45,3.2.14,5.93.25S103.29,13.45,103.36,11.69Z" style="fill: #fff;opacity: 0.1;mix-blend-mode: screen"/>
        <path id="_Path_46" data-name="&lt;Path&gt;" d="M95.63,4s2.42.76.13,3.68C95.76,7.7,100.13,4.68,95.63,4Z" style="fill: #484c54"/>
        <path id="_Path_47" data-name="&lt;Path&gt;" d="M114.65,22.65a1.39,1.39,0,0,1-1.66.66c0,.1.45.52.86.66a1.4,1.4,0,0,0,1.82-.88c.22-.63-.34-1.39-1.23-1.7a2.18,2.18,0,0,0-.35-.07A1.25,1.25,0,0,1,114.65,22.65Z" style="opacity: 0.1"/>
        <g>
          <path id="_Path_48" data-name="&lt;Path&gt;" d="M146.15,56.48c2.4-2.3,5.2-4.38,2.2-7.68-2.83-3.12-6.39,1-8.24,5.59-3,7.5-11,7.54-8.49,9C135.89,61.3,144.62,58.22,146.15,56.48Z" style="fill: #bf9e7d"/>
          <path id="_Path_49" data-name="&lt;Path&gt;" d="M143.25,51.48c.15-2-.33-3.66-1.07-3.72s-1.47,1.51-1.63,3.51-.9,3.9-.15,4S143.09,53.48,143.25,51.48Z" style="fill: #bf9e7d"/>
          <path id="_Path_50" data-name="&lt;Path&gt;" d="M144.33,46.46c1-1.61.87-2.41.38-2.6s-1.16.31-2.15,1.92-1.76,4-1.27,4.19S143.33,48.07,144.33,46.46Z" style="fill: #bf9e7d"/>
          <path id="_Path_51" data-name="&lt;Path&gt;" d="M152.48,48.4c1.72-.72,2.8-1,2.81-.33s-1.39,1.1-3.08,2.36-3.39,1.85-3.4,1.22S150.89,49.06,152.48,48.4Z" style="fill: #bf9e7d"/>
          <path id="_Path_52" data-name="&lt;Path&gt;" d="M156.75,48c1.46-.68,1.9-1.19,1.78-1.61s-.83-.62-2.29.06-2.83,1.7-2.71,2.12S155.3,48.71,156.75,48Z" style="fill: #bf9e7d"/>
          <path id="_Path_53" data-name="&lt;Path&gt;" d="M150.91,51.78c1.52-.53,2.47-.68,2.45-.14s-1.26.88-2.79,1.88-3,1.42-3,.88S149.5,52.27,150.91,51.78Z" style="fill: #bf9e7d"/>
          <path id="_Path_54" data-name="&lt;Path&gt;" d="M154.63,51.69c1.3-.51,1.7-.93,1.62-1.3s-.69-.58-2-.07-2.54,1.32-2.46,1.69S153.33,52.2,154.63,51.69Z" style="fill: #bf9e7d"/>
          <path id="_Path_55" data-name="&lt;Path&gt;" d="M150.68,46.37c1.64-1,2.7-1.37,2.77-.75s-1.28,1.3-2.84,2.81-3.2,2.35-3.27,1.73S149.16,47.27,150.68,46.37Z" style="fill: #bf9e7d"/>
          <path id="_Path_56" data-name="&lt;Path&gt;" d="M154.9,45.36c1.39-.9,1.78-1.47,1.62-1.86s-.89-.49-2.27.41-2.66,2.11-2.5,2.51S153.52,46.26,154.9,45.36Z" style="fill: #bf9e7d"/>
          <path id="_Path_57" data-name="&lt;Path&gt;" d="M148.18,45c1.64-1,2.7-1.37,2.77-.75s-1.28,1.3-2.84,2.81-3.2,2.35-3.27,1.73S146.66,45.92,148.18,45Z" style="fill: #bf9e7d"/>
          <path id="_Path_58" data-name="&lt;Path&gt;" d="M152.4,44c1.39-.9,1.78-1.47,1.62-1.86s-.89-.49-2.27.41-2.66,2.11-2.5,2.51S151,44.91,152.4,44Z" style="fill: #bf9e7d"/>
        </g>
        <path id="_Path_59" data-name="&lt;Path&gt;" d="M88.32,45.53l4.57-3.28c12.61,8.18,14.11,41.38,43.46,14.46l.64,5.68C108,86.8,93.56,65.45,88.12,53.06,86.64,49.67,86.62,48.81,88.32,45.53Z" style="fill: #7db7e2"/>
        <path d="M90.75,49.26c-1-2.21-1.31-3.35-1-4.78l-1.48,1.06c-1.7,3.28-1.68,4.14-.2,7.53C93.56,65.45,108,86.8,137,62.39l-.17-1.55C109.73,81.6,96,61.24,90.75,49.26Z" style="opacity: 0.1"/>
      </g>
    </g>
  </g>
</svg>
