<svg id="Layer_1" data-name="Layer 1" xmlns="http://www.w3.org/2000/svg" xmlns:xlink="http://www.w3.org/1999/xlink" width="208" height="195" viewBox="0 0 208 195">
  <defs>
    <linearGradient id="linear-gradient" x1="-1563.07" y1="4295.07" x2="-1553.89" y2="4247.02" gradientTransform="matrix(0.73, 0.69, 0.69, -0.73, -1685.81, 4245.25)" gradientUnits="userSpaceOnUse">
      <stop offset="0" stop-color="#ff7133"/>
      <stop offset="1" stop-color="#ff4545"/>
    </linearGradient>
    <linearGradient id="linear-gradient-2" x1="-5079.93" y1="2375.02" x2="-5070.8" y2="2327.23" gradientTransform="translate(-4184.98 3610.33) rotate(165.64)" xlink:href="#linear-gradient"/>
    <linearGradient id="linear-gradient-3" x1="181.96" y1="150.61" x2="182.44" y2="148.11" gradientTransform="translate(-44.78 -67.45) rotate(-1.68)" xlink:href="#linear-gradient"/>
    <linearGradient id="linear-gradient-4" x1="120.49" y1="129.92" x2="135.29" y2="52.46" gradientTransform="matrix(1, 0, 0, 1, 0, 0)" xlink:href="#linear-gradient"/>
  </defs>
  <title>sitting</title>
  <path d="M1.08,127.73a102.92,102.92,0,0,1,205.83,0Z" style="fill: #d3f0f6"/>
  <ellipse cx="109.82" cy="176.24" rx="84.34" ry="17.76" style="opacity: 0.1"/>
  <g>
    <path d="M90.42,137.35l1.49,31.2s-2.6,1.86-2.6.37-1.86-33.06-1.86-33.06Z" style="fill: #484c54"/>
    <path d="M118.67,87.21s30,.95,33.39,6-10.13,23-10.51,29.67,3,13.57,0,15.15S127.3,144,119,149.39,99.16,145,94.66,143.74s-13.51-5.65-13.51-5.65,4.5-5.43,19.51-6.06S118.67,87.21,118.67,87.21Z" style="fill: #484c54"/>
    <path d="M38.48,138.13c1.47-2.58.72-4.43-4.16-8-4.63-3.34-10.33-8.34-11.83-7s2.25,6.65,6.15,11.17S36.67,141.32,38.48,138.13Z" style="fill: #477db2"/>
    <path d="M39.23,137.79c1.47-2.58.72-4.43-4.16-8-4.63-3.34-10.33-8.34-11.83-7s2.25,6.65,6.15,11.17S37.42,141,39.23,137.79Z" style="fill: #7db7e2"/>
    <polygon points="37.85 131.71 35.87 135.39 33.38 134.05 35.36 130.37 37.85 131.71" style="fill: #f5f0ff"/>
    <path d="M44.37,129.92,46,133.36l-7,2.54c-.84-.89-1.88-1.39-1-3Z" style="fill: #ffc48f"/>
    <path d="M93.35,170.89c-2.75-1.12-4.49-.14-7.35,5.16-2.71,5-6.93,11.33-5.45,12.65s6.3-3.09,10.28-7.55S96.75,172.28,93.35,170.89Z" style="fill: #477db2"/>
    <path d="M92.92,170.19c-2.75-1.12-4.49-.14-7.35,5.16-2.71,5-6.93,11.33-5.45,12.65s6.3-3.09,10.28-7.55S96.32,171.58,92.92,170.19Z" style="fill: #7db7e2"/>
    <polygon points="87.07 172.36 90.97 173.84 89.97 176.48 86.07 175 87.07 172.36" style="fill: #f5f0ff"/>
    <path d="M84.45,166.12l3.2-2.07,3.43,6.64c-.78.95-1.14,2-2.87,1.41Z" style="fill: #ffc48f"/>
    <path d="M83,112.73c4.35-4.65-2.41-9.73-6.38-8.92C63.67,119.1,54,125.4,37,128.38l8.93,7.73C61.52,132,73.22,122.78,83,112.73Z" style="fill: #8c532c"/>
    <path d="M83.27,106.66a5.78,5.78,0,0,1-1.45,2.19c-10.53,10.14-23,19.57-39,24.61l3.06,2.65C61.52,132,73.22,122.78,83,112.73A4.31,4.31,0,0,0,83.27,106.66Z" style="fill: #ffeea9;opacity: 0.2"/>
    <path d="M117.37,75.88c-1.67,3.34-2.73,7.47-.28,10.54l-.59-.48-.18-.16C93.69,72.55,86.8,54.32,120.42,47l2.45,5.25C99,59.66,101.06,69,117.37,75.88Z" style="fill: url(#linear-gradient)"/>
    <path d="M117.37,75.88l-.25-.11c-.07.33-.12.66-.16,1C117.09,76.47,117.23,76.17,117.37,75.88Z"/>
    <path d="M115.79,80.47C104.87,73.71,98.08,65.8,98.53,58.74c-4.5,8.34,3.5,18.69,17.79,27l.18.16.59.48A7.27,7.27,0,0,1,115.79,80.47Z" style="opacity: 0.1"/>
    <path d="M124.17,51c-.34.68,2.08,2.55,4.2,3.43s4.32.13,4.65-.56-.46-1.55-3.16-1.4C127.57,52.57,124.5,50.29,124.17,51Z" style="fill: #edae7a"/>
    <path d="M122.9,52.59A3.73,3.73,0,0,1,118,52.1a3.07,3.07,0,0,1,.87-4.5,3.73,3.73,0,0,1,4.94.48A3.07,3.07,0,0,1,122.9,52.59Z" style="fill: #aa3917"/>
    <path d="M121.07,49.88c-.44-1.85,3.25-3.37,5.84-4.57,2.14-1,2.9.1,3.33,2s.81,4.44-1.53,4.91S121.5,51.74,121.07,49.88Z" style="fill: #ffc48f"/>
    <path d="M125.4,46.7c-.14-.67,1.55-2.12,3.51-2.46s2.94.75,3.08,1.42-.21,1.58-2.44.89C127.66,46,125.54,47.37,125.4,46.7Z" style="fill: #ffc48f"/>
    <path d="M126.37,48.82c0-.68,1.91-1.86,3.9-1.9s2.38.83,2.4,1.52-.18,1.3-2.18,1.35S126.39,49.51,126.37,48.82Z" style="fill: #ffc48f"/>
    <path d="M124.29,51.29c0-.68,4.22-1.36,5.89-1.41s3,.78,3.07,1.47-1.17.86-2.84.91S124.32,52,124.29,51.29Z" style="fill: #ffc48f"/>
    <path d="M141.47,75.94c-.31,3.67-4.07,8.82-7.85,10.42l.77-.16.24-.06c26.77-1.56,42.43-14.47,16.92-35.81l-4.91,3.52C163.59,70.95,159.36,77.13,141.47,75.94Z" style="fill: url(#linear-gradient-2)"/>
    <path d="M141.47,75.94a8,8,0,0,1-.36,1.71A17.23,17.23,0,0,0,142.23,76Z" style="fill: url(#linear-gradient-3)"/>
    <path d="M139.08,81.59a14,14,0,0,1-5.46,4.78l.77-.16.24-.06c15.58-.91,27.37-5.66,29.5-13.69C159.79,77.52,150.58,80.65,139.08,81.59Z" style="opacity: 0.1"/>
    <path d="M146.17,52.17c-.07.75-3.16,1.31-5.48,1.15s-3.84-1.8-3.77-2.55,1.22-1.15,3.5.17C142.36,52.06,146.24,51.42,146.17,52.17Z" style="fill: #edae7a"/>
    <path d="M146.43,54.14A3.61,3.61,0,0,0,151,55.91a3.14,3.14,0,0,0,1.62-4.33A3.62,3.62,0,0,0,148,49.81,3.14,3.14,0,0,0,146.43,54.14Z" style="fill: #aa3917"/>
    <path d="M149.46,52.59c1.36-1.43-1.06-4.4-2.69-6.59-1.35-1.81-2.58-1.2-3.94.23s-3.05,3.54-1.26,5S148.1,54,149.46,52.59Z" style="fill: #ffc48f"/>
    <path d="M147.35,47.87c.48-.53-.23-2.55-1.77-3.72a2.59,2.59,0,0,0-3.44-.12c-.48.53-.65,1.48,1.66,1.86C145.76,46.23,146.88,48.4,147.35,47.87Z" style="fill: #ffc48f"/>
    <path d="M145.39,49.31c.38-.59-.68-2.47-2.4-3.4s-2.52-.33-2.9.26-.53,1.22,1.19,2.15S145,49.9,145.39,49.31Z" style="fill: #ffc48f"/>
    <path d="M145.89,52.39c.38-.59-3-3.06-4.4-3.85s-3.07-.66-3.46-.08.57,1.27,2,2.06S145.51,53,145.89,52.39Z" style="fill: #ffc48f"/>
    <path d="M114.1,52.72s3.16-.77,4.53-2.7S118.34,55.27,114.1,52.72Z" style="fill: #6b401c"/>
    <path d="M148.92,62.7s-1.59-3.34-.79-5.6S143.47,60,148.92,62.7Z" style="fill: #6b401c"/>
    <path d="M113.91,55.25s2.84-1.57,3.66-3.8S118.67,56.59,113.91,55.25Z" style="fill: #6b401c"/>
    <path d="M148.16,57.35c0-8.64-7.07-17.14-11.35-17.14,0,0,6.73,20.51-3.05,32.4C138.61,73.24,148.16,66,148.16,57.35Z" style="fill: #6b401c"/>
    <path d="M67,128.77l-.09,2.54c8.13-5.7,29,13.26,54.95,7.32l10.35-14.56c-19.58,9.74-42.81.41-55.94-2.5A7.64,7.64,0,0,0,67,128.77Z" style="fill: #8c532c"/>
    <path d="M146.12,88.34c-16.33,3.63-25.7,2.45-33.69-.82L111.25,96c10.94,4.31,20.68,3.23,33.69-1.53Z" style="fill: #ffc7b6"/>
    <path d="M145,94.38a53,53,0,0,0,1.13-6,5.33,5.33,0,0,1,.91-2.28c-.19-3.89-2.13-9.36-6.53-11.2-1.39-.05-2.85-.1-4.47-.14l-16.44-.5c-3.87.71-6.05,4.5-7.26,8.09l.07,0c.75,10.14-2.66,21.63-7.69,35.2-.28,9.34,25.57,15.1,27.54,9.31,2.66-5.91,8.29-18.06,10.06-23.3C143,101.27,144,97.54,145,94.38Z" style="fill: url(#linear-gradient-4)"/>
    <polygon points="131.09 127.4 102.75 122.65 101.42 135.02 123.58 137.26 131.09 127.4" style="fill: #8c532c"/>
    <path d="M73.94,111c-1.26-2.79-.11-5,1.87-6.35a7.66,7.66,0,0,1,9.13.23c16.57,13,31.19,20.66,50.34,16.13l-13.17,6.18C108.7,134,85.3,120.65,73.94,111Z" style="fill: #8c532c"/>
    <path d="M141.14,77.72c0-2-4.25-3.56-9.41-3.46S121.9,75,121.94,77s4.77,4.65,9.93,4.55S141.18,79.73,141.14,77.72Z" style="fill: #e55c2c"/>
    <path d="M145.45,56.18c0-9.33-6.68-16.89-14.92-16.89s-12,3.59-13.59,16.89c-1.09,9.27,5.35,16.89,13.59,16.89S145.45,65.51,145.45,56.18Z" style="fill: #ffc48f"/>
    <path d="M134.47,66.86l-8,.24,1.87,9.42c0,2.19,3.76,2.5,6.26.31Z" style="fill: #ffc48f"/>
    <path d="M144.7,75.06c-2.42-.14-10.94-.75-14.33-.83l-11.31,0-1.27.6c-2.78,1.37-4.46,4.51-5.47,7.5h0l.08,0a40,40,0,0,1,.08,4.18,37.05,37.05,0,0,0,13.85,1.21c11-.94,19.67-5.63,19.26-10.48A4.36,4.36,0,0,0,144.7,75.06Z" style="opacity: 0.1"/>
    <path d="M146,61.69c0-5.36-12.21,2.7-19.84.35-11.74-.08-7.51-12.21-11.15-.7C111.65,71.83,120.7,76,128.39,76S146,67.05,146,61.69Z" style="fill: #6b401c"/>
    <path d="M146.83,56.49c.74-4.35-2.6-10.49-3.75-10.69s-.84,4.46-1.58,8.81-2.25,6.74-1.11,6.93S146.09,60.84,146.83,56.49Z" style="fill: #6b401c"/>
    <path d="M146.92,59c.42-1.43-.06-2.84-1.09-3.14s-1.76.74-2.18,2.17-.38,2.7.65,3S146.49,60.45,146.92,59Z" style="fill: #ffc48f"/>
    <path d="M122.52,41.77c-3.44-.78-4.38-9.08,3.6-8.77-4.7.63-6.1,6.11-2.66,7.67Z" style="fill: #6b401c"/>
    <path d="M123.55,41.34c-2.39-.45-3.24-6.14,2.26-6.13-3.22.55-4.05,4.36-1.64,5.35Z" style="fill: #6b401c"/>
    <path d="M123.36,41.68c-2,1.94-7.87-1-4.26-6.11-1.58,3.37,1.44,6.64,3.94,5Z" style="fill: #6b401c"/>
    <path d="M141.66,42.56c-4.7-6.57-19.43-5.5-19.43-2,0,.84.14,1.41,2.7,1.41C133.79,36.8,147.3,52.34,141.66,42.56Z" style="fill: #6b401c"/>
    <ellipse cx="132.01" cy="53.01" rx="2.82" ry="1" transform="translate(58.65 174.89) rotate(-80.83)" style="fill: #544030"/>
    <ellipse cx="121.64" cy="51.6" rx="2.82" ry="1" transform="translate(51.29 163.44) rotate(-80.81)" style="fill: #544030"/>
    <path d="M137,50.5a2,2,0,0,0-.72-2.78l-2.8-1.65L132,48.5l4.55,2.68Z" style="fill: #6b401c"/>
    <path d="M119.49,47.45a2,2,0,0,1,1.81-2.07l3-.07.06,2.82-4.82.11Z" style="fill: #6b401c"/>
    <path d="M142.91,45.38c-.78-1.35-4.41-2.76-5.4-2.19,3.13,1.88,4.31,3.21,4.54,7.36C143,50,143.69,46.72,142.91,45.38Z" style="fill: #6b401c"/>
    <path d="M128.16,40.21c-.14-.67-2.26-.58-3.72-.27s-4.35,1-4.21,1.67,3.26,1,4.72.74S128.3,40.88,128.16,40.21Z" style="fill: #6b401c"/>
    <path d="M117.43,53a7.82,7.82,0,0,0,1,5.3,5.55,5.55,0,0,1-2.76,2S115.55,55.93,117.43,53Z" style="fill: #6b401c"/>
    <path d="M134.74,62.24c-.17-1.26-4.1-4.26-6.58-3.92s-3.59.9-3.41,2.17-.57,3.32,1.91,3S134.91,63.51,134.74,62.24Z" style="fill: #6b401c"/>
    <path d="M123.68,61.08c.09-1.15-1.37-3.86-2.89-4s-2.8.33-2.89,1.47a2.79,2.79,0,0,0,2.56,2.68C122,61.38,123.59,62.23,123.68,61.08Z" style="fill: #6b401c"/>
    <path d="M131.23,60.34s3.69.34,2.6-2.3c0,0,3.8,2,.84,4.37C134.66,62.42,130.29,62.41,131.23,60.34Z" style="fill: #6b401c"/>
    <path d="M120.91,57.16s-2.53-.07-1.72-1.74c0,0-2.61,1.38-.78,3C118.41,58.44,121.44,58.54,120.91,57.16Z" style="fill: #6b401c"/>
    <path d="M137.35,63.51c-8.05,3-15.61,1.64-17.24.27-.28.25-.13,2.56-.14,2.93.52,2.41,2.63,5.28,10.29,5a5.81,5.81,0,0,0,4.39-2.27C136.16,67.49,137.47,65.14,137.35,63.51Z" style="fill: #3d210d"/>
    <path d="M126.58,57.82c.81-3.41.34-5.67-1-5-3.58,1.81-6.65,9.68-3.12,10.52C123.92,63.71,125.77,61.23,126.58,57.82Z" style="fill: #f48058"/>
    <path d="M133.83,67.76,135,65c-5.89,1.87-11.3,1.25-13.49.29l.24,1.92Z" style="fill: #ffdcc0"/>
    <path d="M146.3,58.93a1.68,1.68,0,0,0-.76-2.18c-.71-.21-1.22.51-1.52,1.51s-.26,1.88.45,2.09S146,59.92,146.3,58.93Z" style="fill: #9d4000;opacity: 0.5"/>
    <path d="M140.31,46.26s-.49-1.71-.08-2.33a.32.32,0,0,0-.18-.48,10.6,10.6,0,0,0-4.08-.36Z" style="fill: #ffc48f"/>
    <ellipse cx="123.6" cy="59.7" rx="1.73" ry="0.87" transform="translate(31.89 161.83) rotate(-73.85)" style="fill: #ffc48f"/>
    <path d="M99.18,138.28s13.45,8.23,25.2,2.11c7.83-4.08,16.33-9.09,10.67-19.61l-11.52,4.89Z" style="fill: #8c532c"/>
    <path d="M77.25,122a10,10,0,0,0-9.74,2.27c-3.4,9.72,3.71,26.3,15.45,44.82l10.19-1.28C80.23,149.1,74.36,134.56,77.25,122Z" style="fill: #8c532c"/>
    <path d="M102.42,127.47c-14.75-1.72-19.55-4.8-25.5-5.57a10.58,10.58,0,0,0-6.09.28,9.72,9.72,0,0,0-.87.73c-3.4,9.72,3.71,26.3,15.45,44.82l7.11-.9C84,154.35,78.64,143.72,77.05,134.28,71.58,116,83.12,132.51,102.42,127.47Z" style="fill: #ffeea9;opacity: 0.2"/>
    <path d="M138.7,137.65l1.49,31.2s-2.6,1.86-2.6.37-1.86-33.06-1.86-33.06Z" style="fill: #484c54"/>
    <path d="M117.92,147.94l1.49,31.2s-2.6,1.86-2.6.37-1.86-33.06-1.86-33.06Z" style="fill: #484c54"/>
  </g>
</svg>
