<svg id="Layer_1" data-name="Layer 1" xmlns="http://www.w3.org/2000/svg" xmlns:xlink="http://www.w3.org/1999/xlink" width="208" height="195" viewBox="0 0 208 195">
  <defs>
    <filter id="luminosity-noclip" x="93.93" y="-8289" width="9.28" height="32766" filterUnits="userSpaceOnUse" color-interpolation-filters="sRGB">
      <feFlood flood-color="#fff" result="bg"/>
      <feBlend in="SourceGraphic" in2="bg"/>
    </filter>
    <mask id="mask" x="93.93" y="-8289" width="9.28" height="32766" maskUnits="userSpaceOnUse">
      <g style="filter: url(#luminosity-noclip)"/>
    </mask>
    <linearGradient id="linear-gradient" x1="57.3" y1="-55.54" x2="43.98" y2="-84.89" gradientTransform="translate(44.9 127.95) rotate(2.43)" gradientUnits="userSpaceOnUse">
      <stop offset="0"/>
      <stop offset="0.17" stop-color="#303030"/>
      <stop offset="0.58" stop-color="#9e9e9e"/>
      <stop offset="0.87" stop-color="#e4e4e4"/>
      <stop offset="1" stop-color="#fff"/>
    </linearGradient>
    <filter id="luminosity-noclip-2" x="93.93" y="51" width="9.28" height="21.25" filterUnits="userSpaceOnUse" color-interpolation-filters="sRGB">
      <feFlood flood-color="#fff" result="bg"/>
      <feBlend in="SourceGraphic" in2="bg"/>
    </filter>
    <mask id="mask-2" x="93.93" y="51" width="9.28" height="21.25" maskUnits="userSpaceOnUse">
      <g id="_Group_" data-name="&lt;Group&gt;" style="filter: url(#luminosity-noclip-2)">
        <g style="mask: url(#mask)">
          <path id="_Path_" data-name="&lt;Path&gt;" d="M102.55,58.86c-1.2-4.86-4-8.36-6.21-7.81s-3.06,4.94-1.85,9.8,4.38,11.92,6.61,11.37S103.75,63.72,102.55,58.86Z" style="mix-blend-mode: multiply;fill: url(#linear-gradient)"/>
        </g>
      </g>
    </mask>
  </defs>
  <title>sitting copy</title>
  <path d="M1.08,127.73a102.92,102.92,0,0,1,205.83,0Z" style="fill: #d3f0f6"/>
  <ellipse cx="109.82" cy="176.24" rx="84.34" ry="17.76" style="opacity: 0.1"/>
  <g>
    <path id="_Path_2" data-name="&lt;Path&gt;" d="M115.29,51.49c-2.75,7.9,6.22,20.86,35,27.25a11.5,11.5,0,0,1-.78,4.12c-35.84-5-50.07-21.15-38.83-38Z" style="fill: #bf9e7d"/>
    <path id="_Path_3" data-name="&lt;Path&gt;" d="M113.44,57.13c2.1,10.08,12.42,16.89,33.68,22.45a20.5,20.5,0,0,0,3.15-.84c-21.57-4.79-33.5-13.16-34.61-21.79C115.29,54.08,112.93,54.63,113.44,57.13Z" style="opacity: 0.1"/>
    <path id="_Path_4" data-name="&lt;Path&gt;" d="M79.34,175.89c-2.18-5.69-5.8-8.51-1-12.74,1.72-1.53,5,1.58,6.8,8.12.73,2.71,4.06,7.9,4.3,10.5C89.59,183.73,81.51,181.58,79.34,175.89Z" style="fill: #776a22"/>
    <path id="_Path_5" data-name="&lt;Path&gt;" d="M80.3,174.57c-2.18-5.69-5.8-8.5-1-12.73,1.72-1.53,5,1.58,6.8,8.12.73,2.71,3,8.09,3.24,10.69C89.49,182.6,82.47,180.26,80.3,174.57Z" style="fill: #d8c539"/>
    <path id="_Path_6" data-name="&lt;Path&gt;" d="M83.92,167.33c.77-1,.24-2.86-1.07-4.29s-2.73-1.73-3.51-.71-.52,2.81.8,4.24S83.15,168.35,83.92,167.33Z" style="fill: #8d3c00;opacity: 0.4"/>
    <polygon id="_Path_7" data-name="&lt;Path&gt;" points="85.02 168.74 81.53 170.66 81.95 172.12 85.43 170.2 85.02 168.74" style="fill: #8d3c00;opacity: 0.4"/>
    <polygon id="_Path_8" data-name="&lt;Path&gt;" points="121.64 131.96 114.99 132.72 121.59 177.17 126.84 177.01 121.64 131.96" style="fill: #bf9e7d"/>
    <polygon id="_Path_9" data-name="&lt;Path&gt;" points="120.86 150.38 123.97 177.34 126.84 177.01 121.64 131.96 114.99 132.72 117.57 150.83 120.86 150.38" style="opacity: 0.1"/>
    <path id="_Path_10" data-name="&lt;Path&gt;" d="M104.93,125.07,99,121.91c-5,18.67-8.57,32.42-18.44,40.32L83.51,165C95.62,154.55,100,143.77,104.93,125.07Z" style="fill: #bf9e7d"/>
    <path id="_Path_11" data-name="&lt;Path&gt;" d="M99,121.91c-2.08,7.8-3.65,14.9-6,20.65l2.8,2.62c-4.9,7.87-9.15,14-13.85,19l1.56.83c12.12-10.49,16.47-21.27,21.42-40Z" style="opacity: 0.1"/>
    <path id="_Path_12" data-name="&lt;Path&gt;" d="M117.16,46.58c-3.46-4-20.75-2.93-23.05,1.29,19.8,47.22-3.8,75.17-20.81,80.35,26.86,19.29,54.46,21.38,69.06,3.61C115,98.54,119.36,77.19,117.16,46.58Z" style="fill: #a064ff"/>
    <path id="_Path_13" data-name="&lt;Path&gt;" d="M132.69,184.91c-6.88,1.19-11.7,3.47-12.84-1.65-.61-2.73.85-8.67,8.22-5.41,4.28,1.89,3.86-.87,10.72-2C143.86,175.77,139.57,183.72,132.69,184.91Z" style="fill: #d8c539"/>
    <path id="_Path_14" data-name="&lt;Path&gt;" d="M120.84,185.35c2,2.33,6.59.44,12.28-.54,6.85-1.18,10-9.36,6.28-8.37-3.49,2.67-5.12,6-7.75,6.93C124,186.09,122,184.12,120.84,185.35Z" style="fill: #776a22"/>
    <path id="_Path_15" data-name="&lt;Path&gt;" d="M114.24,45.78c.11-2.66-13.87-1.72-18.62.23,3.59,1.06,8.93,4.58,13.19,4.76S114.16,47.65,114.24,45.78Z" style="fill: #7142cc"/>
    <path d="M96.89,45.6C121.45,61.69,130.83,153,73.63,128.1l-.33.12c26.86,19.29,54.46,21.38,69.06,3.61-27.35-33.3-23-54.64-25.2-85.25C114.19,43.14,102.81,43.81,96.89,45.6Z" style="opacity: 0.1"/>
    <path id="_Path_16" data-name="&lt;Path&gt;" d="M113.73,45.5c.1-2.46-12.83-1.59-17.22.21,3.32,1,8.26,4.24,12.2,4.4A4.54,4.54,0,0,0,113.73,45.5Z" style="fill: #bf9e7d"/>
    <path id="_Path_17" data-name="&lt;Path&gt;" d="M102.62,53.88c-1.68-4.42-6.75-7-8.85-6.25s-2.45,5-.77,9.45,7.83,21,9.94,20.23S104.3,58.3,102.62,53.88Z" style="fill: #a064ff"/>
    <path id="_Path_18" data-name="&lt;Path&gt;" d="M101.69,54.54c-.72-3.79-3.68-6.34-5.57-6S93.28,52.29,94,56.08s2.84,6.56,4.73,6.21S102.41,58.33,101.69,54.54Z" style="fill: #bf9e7d"/>
    <path id="_Path_19" data-name="&lt;Path&gt;" d="M83.16,158.26l-3,4.24a3,3,0,0,0,3,3.58l4.62-3Z" style="fill: #e87c5b"/>
    <rect id="_Path_20" data-name="&lt;Path&gt;" x="119.8" y="173.84" width="7.76" height="5.13" transform="translate(-22.53 18.17) rotate(-7.7)" style="fill: #e87c5b"/>
    <ellipse id="_Path_21" data-name="&lt;Path&gt;" cx="112.79" cy="30.56" rx="4.22" ry="4.08" transform="translate(77.47 141.95) rotate(-87.57)" style="fill: #484c54"/>
    <ellipse id="_Path_22" data-name="&lt;Path&gt;" cx="113.8" cy="23.99" rx="4.22" ry="4.08" transform="translate(85.01 136.67) rotate(-87.57)" style="fill: #484c54"/>
    <ellipse id="_Path_23" data-name="&lt;Path&gt;" cx="118.45" cy="27.12" rx="4.22" ry="4.08" transform="translate(86.32 144.31) rotate(-87.57)" style="fill: #484c54"/>
    <ellipse id="_Path_24" data-name="&lt;Path&gt;" cx="111.79" cy="19.49" rx="4.22" ry="4.09" transform="translate(87.57 130.36) rotate(-87.57)" style="fill: #484c54"/>
    <ellipse id="_Path_25" data-name="&lt;Path&gt;" cx="109.46" cy="13.88" rx="4.22" ry="4.08" transform="translate(90.94 122.65) rotate(-87.57)" style="fill: #484c54"/>
    <ellipse id="_Path_26" data-name="&lt;Path&gt;" cx="113.78" cy="15.9" rx="4.22" ry="4.08" transform="translate(93.07 128.9) rotate(-87.57)" style="fill: #484c54"/>
    <ellipse id="_Path_27" data-name="&lt;Path&gt;" cx="101.51" cy="10.6" rx="4.22" ry="4.08" transform="translate(86.61 111.57) rotate(-87.57)" style="fill: #484c54"/>
    <ellipse id="_Path_28" data-name="&lt;Path&gt;" cx="95.28" cy="10.34" rx="4.22" ry="4.08" transform="translate(80.9 105.09) rotate(-87.57)" style="fill: #484c54"/>
    <ellipse id="_Path_29" data-name="&lt;Path&gt;" cx="104.56" cy="8.16" rx="4.22" ry="4.09" transform="translate(91.97 112.28) rotate(-87.57)" style="fill: #484c54"/>
    <ellipse id="_Path_30" data-name="&lt;Path&gt;" cx="106.66" cy="10.45" rx="4.22" ry="4.08" transform="translate(91.69 116.58) rotate(-87.57)" style="fill: #484c54"/>
    <ellipse id="_Path_31" data-name="&lt;Path&gt;" cx="97.01" cy="12.8" rx="4.22" ry="4.08" transform="translate(80.1 109.18) rotate(-87.57)" style="fill: #484c54"/>
    <ellipse id="_Path_32" data-name="&lt;Path&gt;" cx="98.3" cy="8.45" rx="4.22" ry="4.08" transform="translate(85.69 106.29) rotate(-87.57)" style="fill: #484c54"/>
    <ellipse id="_Path_33" data-name="&lt;Path&gt;" cx="88.28" cy="10.59" rx="4.22" ry="4.08" transform="translate(73.95 98.35) rotate(-87.57)" style="fill: #484c54"/>
    <ellipse id="_Path_34" data-name="&lt;Path&gt;" cx="94.13" cy="37.3" rx="4.22" ry="4.08" transform="translate(52.87 129.76) rotate(-87.57)" style="fill: #484c54"/>
    <ellipse id="_Path_35" data-name="&lt;Path&gt;" cx="92.5" cy="32.45" rx="4.22" ry="4.08" transform="translate(56.15 123.49) rotate(-87.57)" style="fill: #484c54"/>
    <ellipse id="_Path_36" data-name="&lt;Path&gt;" cx="110.08" cy="33.75" rx="4.22" ry="4.08" transform="translate(71.69 142.3) rotate(-87.57)" style="fill: #484c54"/>
    <ellipse id="_Path_37" data-name="&lt;Path&gt;" cx="87.16" cy="23.04" rx="2.48" ry="4.54" transform="translate(12.92 74.18) rotate(-49.37)" style="fill: #bf9e7d"/>
    <rect id="_Path_38" data-name="&lt;Path&gt;" x="102.18" y="38.47" width="4.25" height="7.16" transform="translate(-2.58 7.08) rotate(-3.84)" style="fill: #bf9e7d"/>
    <path d="M106.57,44l-.38-5.68-4.24.28.39,5.76a25.78,25.78,0,0,0-5.83,1.33c3.32,1,8.26,4.24,12.2,4.4a4.54,4.54,0,0,0,5-4.62C113.78,44.24,110.44,43.86,106.57,44Z" style="opacity: 0.1"/>
    <ellipse id="_Path_39" data-name="&lt;Path&gt;" cx="101.75" cy="26.6" rx="10.83" ry="14.32" transform="translate(-3.18 19.44) rotate(-10.75)" style="fill: #bf9e7d"/>
    <ellipse id="_Path_40" data-name="&lt;Path&gt;" cx="101.75" cy="26.6" rx="10.83" ry="14.32" transform="translate(-3.18 19.44) rotate(-10.75)" style="opacity: 0.1"/>
    <ellipse id="_Path_41" data-name="&lt;Path&gt;" cx="102.72" cy="25.35" rx="10.83" ry="14.32" transform="translate(-2.93 19.6) rotate(-10.75)" style="fill: #bf9e7d"/>
    <ellipse id="_Path_42" data-name="&lt;Path&gt;" cx="86.95" cy="34.42" rx="4.22" ry="4.08" transform="translate(48.87 119.83) rotate(-87.57)" style="fill: #484c54"/>
    <ellipse id="_Path_43" data-name="&lt;Path&gt;" cx="91.63" cy="26.9" rx="4.22" ry="4.09" transform="translate(60.87 117.31) rotate(-87.57)" style="fill: #484c54"/>
    <ellipse id="_Path_44" data-name="&lt;Path&gt;" cx="91.17" cy="29.09" rx="4.22" ry="4.08" transform="translate(58.24 118.95) rotate(-87.57)" style="fill: #484c54"/>
    <ellipse id="_Path_45" data-name="&lt;Path&gt;" cx="86.05" cy="28.5" rx="4.22" ry="4.08" transform="translate(53.92 113.27) rotate(-87.57)" style="fill: #484c54"/>
    <ellipse id="_Path_46" data-name="&lt;Path&gt;" cx="89.6" cy="22.96" rx="4.22" ry="4.08" transform="translate(62.85 111.5) rotate(-87.57)" style="fill: #484c54"/>
    <ellipse id="_Path_47" data-name="&lt;Path&gt;" cx="91.92" cy="20.12" rx="4.22" ry="4.09" transform="translate(67.92 111.1) rotate(-87.57)" style="fill: #484c54"/>
    <ellipse id="_Path_48" data-name="&lt;Path&gt;" cx="88.74" cy="17.04" rx="4.22" ry="4.08" transform="translate(67.95 104.98) rotate(-87.57)" style="fill: #484c54"/>
    <ellipse id="_Path_49" data-name="&lt;Path&gt;" cx="86.38" cy="20.73" rx="5.07" ry="4.9" transform="translate(62.01 106.15) rotate(-87.57)" style="fill: #484c54"/>
    <ellipse id="_Path_50" data-name="&lt;Path&gt;" cx="90.7" cy="14.19" rx="4.22" ry="4.08" transform="translate(72.68 104.21) rotate(-87.57)" style="fill: #484c54"/>
    <ellipse id="_Path_51" data-name="&lt;Path&gt;" cx="93.35" cy="12.46" rx="4.22" ry="4.08" transform="translate(76.94 105.2) rotate(-87.57)" style="fill: #484c54"/>
    <ellipse id="_Path_52" data-name="&lt;Path&gt;" cx="104.78" cy="11.48" rx="2.23" ry="2.16" transform="translate(88.87 115.68) rotate(-87.57)" style="fill: #484c54"/>
    <ellipse id="_Path_53" data-name="&lt;Path&gt;" cx="97.84" cy="10.45" rx="2.23" ry="2.16" transform="translate(83.25 107.76) rotate(-87.57)" style="fill: #484c54"/>
    <ellipse id="_Path_54" data-name="&lt;Path&gt;" cx="97.69" cy="14.12" rx="2.23" ry="2.16" transform="translate(79.44 111.12) rotate(-87.57)" style="fill: #484c54"/>
    <ellipse id="_Path_55" data-name="&lt;Path&gt;" cx="110.12" cy="6.93" rx="2.23" ry="2.16" transform="translate(98.53 116.65) rotate(-87.57)" style="fill: #484c54"/>
    <path id="_Path_56" data-name="&lt;Path&gt;" d="M107.65,27.31c-2.87-1.23-2-2.42-2.82-2.17s-.8,2-.32,3.31S109.24,28,107.65,27.31Z" style="opacity: 0.1"/>
    <path id="_Path_57" data-name="&lt;Path&gt;" d="M100.45,21.82c-.26-1.64-1.14-2.87-2-2.76s-1.29,1.53-1,3.17,1.15,2.87,2,2.76S100.72,23.45,100.45,21.82Z" style="fill: #484c54"/>
    <path id="_Path_58" data-name="&lt;Path&gt;" d="M110.57,21.39c-.28-1.63-1.09-2.88-1.82-2.77s-1.1,1.51-.83,3.15,1.09,2.88,1.83,2.77S110.84,23,110.57,21.39Z" style="fill: #484c54"/>
    <path id="_Path_59" data-name="&lt;Path&gt;" d="M110.84,31c-2.21.1-4.93.43-10.91,1C102.79,36.29,106.15,39.7,110.84,31Z" style="fill: #484c54"/>
    <path id="_Path_60" data-name="&lt;Path&gt;" d="M98.13,17.73a5.9,5.9,0,0,1,4.34.29A4.86,4.86,0,0,0,98,17a3.14,3.14,0,0,0-2.13,2.45A4.36,4.36,0,0,1,98.13,17.73Z" style="fill: #484c54"/>
    <path id="_Path_61" data-name="&lt;Path&gt;" d="M107.51,16.57a3.78,3.78,0,0,1,3.41,1.5,3,3,0,0,0-3.08-2.28,4.82,4.82,0,0,0-3.3,1.85A5.84,5.84,0,0,1,107.51,16.57Z" style="fill: #484c54"/>
    <polygon id="_Path_62" data-name="&lt;Path&gt;" points="100.47 32.25 101.53 33.39 107.8 33.13 109.04 31.48 100.47 32.25" style="fill: #f7eef2"/>
    <ellipse id="_Path_63" data-name="&lt;Path&gt;" cx="91.26" cy="25.66" rx="1.29" ry="2.51" transform="translate(-2.37 10.81) rotate(-6.69)" style="fill: #bf9e7d"/>
    <ellipse id="_Path_64" data-name="&lt;Path&gt;" cx="91.43" cy="25.98" rx="1.8" ry="0.75" transform="translate(65.22 117.34) rotate(-89.86)" style="opacity: 0.1"/>
    <polygon id="_Path_65" data-name="&lt;Path&gt;" points="129.99 178.76 128.29 177.77 125.48 180.19 127.17 181.19 129.99 178.76" style="fill: #8d3c00;opacity: 0.4"/>
    <g style="mask: url(#mask-2)">
      <path id="_Path_66" data-name="&lt;Path&gt;" d="M102.55,58.86c-1.2-4.86-4-8.36-6.21-7.81s-3.06,4.94-1.85,9.8,4.38,11.92,6.61,11.37S103.75,63.72,102.55,58.86Z" style="opacity: 0.1"/>
    </g>
    <path id="_Path_67" data-name="&lt;Path&gt;" d="M100.56,56.31c2-3.31-2.16-6.14-5-6C83.44,61,76.52,76.49,64.17,93.8l3,3.15C78.42,81,86.83,67,100.56,56.31Z" style="fill: #bf9e7d"/>
    <path id="_Path_68" data-name="&lt;Path&gt;" d="M65.9,95.59l1.31,1.36C78.42,81,86.83,67,100.56,56.31a3.57,3.57,0,0,0,.39-.92C88.62,62.56,76.62,80.27,65.9,95.59Z" style="opacity: 0.1"/>
    <ellipse id="_Path_69" data-name="&lt;Path&gt;" cx="64.13" cy="98.33" rx="4.99" ry="3.18" transform="translate(-49.19 128.99) rotate(-72.02)" style="fill: #bf9e7d"/>
    <ellipse id="_Path_70" data-name="&lt;Path&gt;" cx="152.13" cy="80.12" rx="4.99" ry="3.17" transform="translate(-18.78 61.35) rotate(-21.51)" style="fill: #bf9e7d"/>
    <path id="_Path_71" data-name="&lt;Path&gt;" d="M156.77,78.3c-.64-1.63-3.24-2.13-5.81-1.13a6.58,6.58,0,0,0-3,2.26,7.58,7.58,0,0,1,1.23-.64c3.09-.92-1.16,4.83,5.33,3.65C156.32,81.33,157.31,79.64,156.77,78.3Z" style="opacity: 0.1"/>
    <path id="_Path_72" data-name="&lt;Path&gt;" d="M66.64,94.26a6.69,6.69,0,0,1-.22,3.54c-.85,2.62-2.89,4.31-4.56,3.77a2.18,2.18,0,0,1-1-.67,2.8,2.8,0,0,0,1.7,2.18c1.67.54,3.71-1.15,4.56-3.77C67.81,97.29,67.55,95.31,66.64,94.26Z" style="opacity: 0.1"/>
    <path id="_Path_73" data-name="&lt;Path&gt;" d="M154.82,78.32c.88-.77,1.32-1.71,1-2.11s-1.32-.09-2.21.67-1.32,1.71-1,2.11S153.93,79.09,154.82,78.32Z" style="fill: #bf9e7d"/>
    <path id="_Path_74" data-name="&lt;Path&gt;" d="M156.27,79.59c.88-.77,1.32-1.71,1-2.11s-1.33-.1-2.21.67-1.33,1.71-1,2.11S155.39,80.36,156.27,79.59Z" style="fill: #bf9e7d"/>
    <path id="_Path_75" data-name="&lt;Path&gt;" d="M156.86,81.56c.88-.77,1.32-1.71,1-2.11s-1.32-.09-2.21.67-1.32,1.71-1,2.11S156,82.32,156.86,81.56Z" style="fill: #bf9e7d"/>
    <path id="_Path_76" data-name="&lt;Path&gt;" d="M150.84,79.46c1.08-.45,1.79-1.21,1.59-1.69s-1.23-.51-2.31-.05-1.79,1.21-1.6,1.69S149.76,79.91,150.84,79.46Z" style="fill: #bf9e7d"/>
    <path id="_Path_77" data-name="&lt;Path&gt;" d="M151.48,79.69c.35,1.12,1,1.9,1.54,1.74s.61-1.18.26-2.3-1-1.9-1.54-1.74S151.13,78.57,151.48,79.69Z" style="fill: #bf9e7d"/>
    <ellipse id="_Path_78" data-name="&lt;Path&gt;" cx="63.84" cy="102.41" rx="1.93" ry="0.96" transform="matrix(0.04, -1, 1, 0.04, -41.18, 161.85)" style="fill: #bf9e7d"/>
    <ellipse id="_Path_79" data-name="&lt;Path&gt;" cx="66.2" cy="100.35" rx="2.6" ry="1.13" transform="translate(-37.47 161.22) rotate(-87.01)" style="fill: #bf9e7d"/>
    <path d="M120.08,86.85c-6.66,2.26-15.33.89-18.66.22q-.19,2.36-.55,4.59c8.2,3.86,16.51,1.7,20.28.3Q120.54,89.39,120.08,86.85Z" style="fill: #dd6d36"/>
  </g>
</svg>
